<svg id="8a3f0bfe-3240-4a59-aa25-6a1fc0298613" data-name="Layer 1" xmlns="http://www.w3.org/2000/svg" viewBox="0 0 299 299"><defs><style>.\37 876ce57-fb95-4965-85f8-d513cedff9d0,.f848e5bb-b96d-43f9-9fbd-686317da5e28{fill:#fff;}.\37 876ce57-fb95-4965-85f8-d513cedff9d0{stroke:#231f20;stroke-miterlimit:10;stroke-width:4px;}.f7941d4a-f0b7-4d3e-a847-6dac111bdfbd{fill:#005da5;}.\35 65b6e9b-d7e0-47db-b450-984d55b14577{fill:#0055b8;}.\33 9d317b3-8919-4bed-9b2a-636c4ac9cd2f{fill:#80bc00;}.\33 b31d70b-955d-44e7-b3f4-0c5e7eb048cf{fill:#80bc41;}</style></defs><title>183_South_Toll_Shield</title><path class="7876ce57-fb95-4965-85f8-d513cedff9d0" d="M297.5,36.08A33.61,33.61,0,0,0,263.92,2.5H36.07A33.61,33.61,0,0,0,2.5,36.08V263.92S2.24,297.5,36.07,297.5H263.92a33.61,33.61,0,0,0,33.58-33.58V36.08Z" transform="translate(-0.5 -0.5)"/><path class="f848e5bb-b96d-43f9-9fbd-686317da5e28" d="M8,263.54V35.69A28.17,28.17,0,0,1,36.07,7.6H263.92a27.85,27.85,0,0,1,16.62,5.53,10.79,10.79,0,0,0-1.11.93l-28.12,28-38.43-14.6-5.79,5.76,32.46,21.22L224,70l-10.63-1.6-3.62,3.47L218,76l-47.95,48c-3.39-11-15.21-17.74-32.19-17.74-20.26,0-33.21,9.56-33.21,24.56,0,11.6,6.48,17.74,16.26,22.93-12.13,5.18-20,13.37-20,27a22.38,22.38,0,0,0,2.34,10L13.64,280.35A27.91,27.91,0,0,1,8,263.54ZM122.59,131c0-6.55,4.14-11.19,15.16-11.19,11.3,0,15.44,4.64,15.44,11.19,0,7.09-10.2,15-15.3,15S122.59,140,122.59,131ZM122,171.13c4.56-6,14.61-9.59,14.7-9.56,8.82,3,20.06,7.77,20.26,17.88.16,8.59-6.48,14.32-19,14.32-8.18,0-12.72-1.93-16.51-7A13,13,0,0,1,122,171.13ZM292,263.54a28.17,28.17,0,0,1-28.1,28.09H36.07a27.86,27.86,0,0,1-15.93-5L108.9,198c6.65,6,17,9.44,29,9.44,21.09,0,36.93-10.65,36.93-26.75,0-13.64-7.85-21.83-20-27,7.78-4.13,13.46-8.86,15.46-16.46l15.62-15.71,10.29,9.24c5-5.18,10.61-9.82,19-9.82s14.33,4.64,14.33,11.73c0,11.74-12.13,13.79-26.73,13.79v14.73c12,0,30,.55,30,16.65,0,9.55-8.41,14.87-17.23,14.87-9.51,0-16.12-4.36-20.95-12.42l-14.33,8.06c6.89,12.55,21.09,19.1,35.14,19.1,17.64,0,35.28-9,35.28-29.61,0-12.28-6.47-21.29-18.33-25,9.51-4.09,15-11.46,15-21.29,0-16.64-14.61-25.38-32.8-25.38a38.25,38.25,0,0,0-17.92,4.41l27.72-27.89,3.9,7.92L232.12,87l-1.67-10.31L246,61l21.09,32.25,5.64-5.77L258.25,49,286.37,20.9a7.25,7.25,0,0,0,.78-.92A27.85,27.85,0,0,1,292,35.69Z" transform="translate(-0.5 -0.5)"/><path class="f7941d4a-f0b7-4d3e-a847-6dac111bdfbd" d="M153.19,131c0-6.55-4.14-11.19-15.44-11.19-11,0-15.16,4.64-15.16,11.19,0,9,10.2,15,15.3,15S153.19,138.1,153.19,131Z" transform="translate(-0.5 -0.5)"/><path class="565b6e9b-d7e0-47db-b450-984d55b14577" d="M101,180.67c0-13.64,7.85-21.83,20-27-9.78-5.19-16.26-11.33-16.26-22.93,0-15,12.95-24.56,33.21-24.56,17,0,28.8,6.73,32.19,17.74L218,76l-8.25-4.13,3.62-3.47L224,70l15.52-15.52L207.09,33.22l5.79-5.76,38.43,14.6,28.12-28a10.79,10.79,0,0,1,1.11-.93A27.85,27.85,0,0,0,263.92,7.6H36.07A28.17,28.17,0,0,0,8,35.69V263.54a27.91,27.91,0,0,0,5.66,16.81l89.66-89.67A22.38,22.38,0,0,1,101,180.67ZM83.59,206.05H66.23V130.73H50.93V120c14.61-2.87,17.09-7.78,21.77-13.79H83.59Z" transform="translate(-0.5 -0.5)"/><path class="39d317b3-8919-4bed-9b2a-636c4ac9cd2f" d="M286.37,20.9,258.25,49l14.5,38.46-5.64,5.77L246,61,230.45,76.68,232.12,87l-3.74,3.62-3.9-7.92-27.72,27.89a38.25,38.25,0,0,1,17.92-4.41c18.19,0,32.8,8.74,32.8,25.38,0,9.83-5.52,17.2-15,21.29,11.86,3.68,18.33,12.69,18.33,25,0,20.6-17.64,29.61-35.28,29.61-14.05,0-28.25-6.55-35.14-19.1l14.33-8.06c4.83,8.06,11.44,12.42,20.95,12.42,8.82,0,17.23-5.32,17.23-14.87,0-16.1-18.06-16.65-30-16.65V146.43c14.6,0,26.73-2.05,26.73-13.79,0-7.09-6.06-11.73-14.33-11.73s-14.06,4.64-19,9.82l-10.29-9.24L170.3,137.2c-2,7.6-7.68,12.33-15.46,16.46,12.13,5.18,20,13.37,20,27,0,16.1-15.84,26.75-36.93,26.75-12,0-22.34-3.48-29-9.44L20.14,286.63a27.86,27.86,0,0,0,15.93,5H263.92A28.17,28.17,0,0,0,292,263.54V35.69A27.85,27.85,0,0,0,287.15,20,7.25,7.25,0,0,1,286.37,20.9Zm-177.08,238c-5.86,0-11.37-3.08-13.41-8l5.66-2.33c1.64,3.17,3.77,5.28,7.8,5.28,3.42,0,6-1.22,6-4.49,0-6.63-18.47-5.32-18.47-15.69,0-6,5.37-9.44,11.57-9.44,5.76,0,10.53,2.71,12.66,7.62l-6.25,1.82a6.56,6.56,0,0,0-6.41-4.39c-3,0-5.11,1.12-5.11,3.74,0,5.79,18.47,4.57,18.47,15.5C121.85,255.47,117.23,258.93,109.29,258.93Zm31.18,0c-9.78,0-15-6.3-15-17.33s5.26-17.33,15-17.33,15.05,6.31,15.05,17.33S150.25,258.93,140.47,258.93Zm47.77-13.08c0,9.86-6.45,13.08-13.75,13.08s-13.75-3.22-13.75-13.08V224.74h6.85v21.39c0,5.47,2.28,7.38,6.9,7.38s6.9-1.91,6.9-7.38V224.74h6.85Zm30.3-15.74h-9.39v28.35H202.3V230.11h-9.38v-5.42h25.62Zm32.18,28.35h-6.86V244h-13.8v14.48h-6.85V224.74h6.85v13.45h13.8V224.74h6.86Z" transform="translate(-0.5 -0.5)"/><path class="3b31d70b-955d-44e7-b3f4-0c5e7eb048cf" d="M140.47,229.69c-5.61,0-8.19,4-8.19,11.91s2.53,11.91,8.19,11.91,8.2-4,8.2-11.91S146.08,229.69,140.47,229.69Z" transform="translate(-0.5 -0.5)"/><path class="3b31d70b-955d-44e7-b3f4-0c5e7eb048cf" d="M137.89,193.77c12.54,0,19.18-5.73,19-14.32-.2-10.11-11.44-14.84-20.26-17.88-.09,0-10.14,3.53-14.7,9.56a13,13,0,0,0-.57,15.62C125.17,191.84,129.71,193.77,137.89,193.77Z" transform="translate(-0.5 -0.5)"/><path class="f848e5bb-b96d-43f9-9fbd-686317da5e28" d="M50.93,120v10.77h15.3v75.32H83.59V106.17H72.7C68,112.18,65.54,117.09,50.93,120Z" transform="translate(-0.5 -0.5)"/><path class="f848e5bb-b96d-43f9-9fbd-686317da5e28" d="M103.38,233.06c0-2.62,2.13-3.74,5.11-3.74a6.56,6.56,0,0,1,6.41,4.39l6.25-1.82c-2.13-4.91-6.9-7.62-12.66-7.62-6.2,0-11.57,3.41-11.57,9.44,0,10.37,18.47,9.06,18.47,15.69,0,3.27-2.63,4.49-6,4.49-4,0-6.16-2.11-7.8-5.28l-5.66,2.33c2,4.91,7.55,8,13.41,8,7.94,0,12.56-3.46,12.56-10.37C121.85,237.63,103.38,238.85,103.38,233.06Z" transform="translate(-0.5 -0.5)"/><path class="f848e5bb-b96d-43f9-9fbd-686317da5e28" d="M140.47,224.27c-9.78,0-15,6.31-15,17.33s5.26,17.33,15,17.33,15.05-6.3,15.05-17.33S150.25,224.27,140.47,224.27Zm0,29.24c-5.66,0-8.29-4-8.19-11.91s2.58-11.91,8.19-11.91,8.2,4,8.2,11.91S146.08,253.51,140.47,253.51Z" transform="translate(-0.5 -0.5)"/><path class="f848e5bb-b96d-43f9-9fbd-686317da5e28" d="M181.39,246.13c0,5.47-2.28,7.38-6.9,7.38s-6.9-1.91-6.9-7.38V224.74h-6.85v21.11c0,9.86,6.45,13.08,13.75,13.08s13.75-3.22,13.75-13.08V224.74h-6.85Z" transform="translate(-0.5 -0.5)"/><polygon class="f848e5bb-b96d-43f9-9fbd-686317da5e28" points="192.42 229.61 201.8 229.61 201.8 257.96 208.65 257.96 208.65 229.61 218.04 229.61 218.04 224.19 192.42 224.19 192.42 229.61"/><polygon class="f848e5bb-b96d-43f9-9fbd-686317da5e28" points="243.36 237.69 229.56 237.69 229.56 224.24 222.71 224.24 222.71 257.96 229.56 257.96 229.56 243.48 243.36 243.48 243.36 257.96 250.22 257.96 250.22 224.24 243.36 224.24 243.36 237.69"/></svg>