<?xml version="1.0" encoding="utf-8"?>
<!-- Generator: Adobe Illustrator 22.1.0, SVG Export Plug-In . SVG Version: 6.00 Build 0)  -->
<svg version="1.1" id="_x37_26f05e7-a19b-4b6c-8382-24b15271bb4d"
	 xmlns="http://www.w3.org/2000/svg" xmlns:xlink="http://www.w3.org/1999/xlink" x="0px" y="0px" viewBox="0 0 90 90"
	 style="enable-background:new 0 0 90 90;" xml:space="preserve">
<style type="text/css">
	.st0{fill-rule:evenodd;clip-rule:evenodd;fill:#EBB01F;stroke:#231F20;stroke-miterlimit:10;}
	.st1{fill-rule:evenodd;clip-rule:evenodd;fill:#0056A1;}
	.st2{fill:#221F1F;}
	.st3{fill:#FFFFFF;}
	.st4{fill:#ECA820;}
	.st5{fill:#0155A3;}
</style>
<g>
	<title>183A_toll_sheild</title>
	<path class="st0" d="M3.9,0.7h82.8c1.6,0,2.9,1.3,2.9,2.9v82.7c0,1.6-1.3,2.9-2.9,2.9H3.9c-1.4,0-2.8-1.3-2.8-2.9V3.6
		C1.1,2.1,2.4,0.7,3.9,0.7z"/>
	<path class="st1" d="M6.7,3.4h77.8c2.4,0,2,0.7,2.1,2.1v52.1H4.1V5.4C4.3,3.7,4.4,3.4,6.7,3.4z"/>
	<g>
		<path class="st2" d="M38.4,68.6v12.9h-3V68.6H31v-3.2h11.8v3.2H38.4z"/>
		<path class="st2" d="M54.2,73.5c0,2.9-1,5.1-3.5,5.1s-3.5-2.2-3.5-5.1c0-2.9,1-5.1,3.5-5.1S54.2,70.6,54.2,73.5z M57.4,73.5
			c0-4.9-2.5-8.3-6.6-8.3c-4.2,0-6.6,3.4-6.6,8.3c0,4.9,2.5,8.3,6.6,8.3C54.9,81.8,57.4,78.4,57.4,73.5z"/>
		<path class="st2" d="M60.4,81.5V65.4h3v12.9h7.6v3.2H60.4z"/>
		<path class="st2" d="M73.8,81.5V65.4h3v12.9h7.6v3.2H73.8z"/>
	</g>
	<g>
		<circle class="st3" cx="16.5" cy="73.3" r="10.6"/>
		<path class="st4" d="M10.8,80.8l0.1-0.1c3.3-5,8.3-8.8,14.3-10.4l-6.8,0l-2.1-6.5l-2.1,6.5l-6.8,0l5.5,4L10.8,80.8z"/>
		<path class="st5" d="M16.5,84.2c-6.1,0-11-4.9-11-11c0-6.1,4.9-11,11-11s11,4.9,11,11C27.5,79.3,22.6,84.2,16.5,84.2z M16.5,63.2
			c-5.6,0-10.1,4.5-10.1,10.1S11,83.3,16.5,83.3s10.1-4.5,10.1-10.1S22.1,63.2,16.5,63.2z"/>
		<path class="st5" d="M16.5,85C10,85,4.7,79.7,4.7,73.2c0-6.5,5.3-11.8,11.8-11.8s11.8,5.3,11.8,11.8C28.3,79.7,23,85,16.5,85z
			 M16.5,61.8C10.2,61.8,5,66.9,5,73.2c0,6.3,5.1,11.5,11.5,11.5S28,79.6,28,73.2C28,66.9,22.8,61.8,16.5,61.8z"/>
		<path class="st5" d="M17.7,78l4.1,2.8L20,75C19.2,75.4,18.1,77.1,17.7,78z"/>
		<g>
			<path class="st5" d="M14.7,78.4c-0.9,1.4-1.2,2.4-1.2,2.4l0.8,0c0.3-0.8,0.8-1.5,1.2-2.2L14.7,78.4z"/>
			<path class="st5" d="M19,74.6c0.5-0.5,1.1-0.8,1.5-1.1l-0.8-0.1c-0.5,0.3-1,0.7-1.5,1L19,74.6z"/>
			<path class="st5" d="M22.4,72.1c-0.5,0.2-1,0.4-1.4,0.6l0.7,0.1c0.5-0.3,0.7-0.4,0.7-0.4l0.5-0.3L22.4,72.1z"/>
			<path class="st5" d="M17.1,75.5c-0.5,0.5-1,1.1-1.4,1.6l0.7,0.2c0.5-0.6,1-1.1,1.4-1.6L17.1,75.5z"/>
		</g>
	</g>
	<g>
		<path class="st3" d="M11.8,46.6v-23H7.2v-4.7c3-0.2,4.9-1.5,5.5-4.1h4.4v31.8H11.8z"/>
		<path class="st3" d="M34.2,23.6c0,2.1-1.3,3.6-4.2,3.6c-2.7,0-4.2-1.6-4.2-3.6c0-2,1.2-3.8,4.2-3.8C33.2,19.8,34.2,21.5,34.2,23.6
			z M40,36.7c0-4-1.9-6.3-3.8-7.4c1.8-1.4,2.7-3.6,2.7-5.9c0-6.2-4.2-9.2-8.9-9.2c-5,0-8.9,3.2-8.9,9.5c0,2.4,1,4.4,2.7,5.6
			c-1.8,1-3.8,3.3-3.8,7.7c0,6.3,3.8,10.1,9.9,10.1C36.2,47.1,40,43.1,40,36.7z M35.2,36.9c0,2.9-1.9,4.6-5.2,4.6
			c-3,0-5.2-1.7-5.2-4.6c0-2.7,1.6-4.5,5.2-4.5C33.6,32.4,35.2,34,35.2,36.9z"/>
		<path class="st3" d="M50.5,47.1c-3.5,0-6.7-1.9-9.4-6.1l3.6-3.9c2,2.8,3.8,3.8,6.2,3.8c3.1,0,4.6-1.5,4.6-4c0-2.5-1.3-3.6-3.5-3.6
			h-2.8v-6.2h2.5c2,0,2.8-1.1,2.8-3.2c0-1.6-1-3.2-4-3.2c-1.8,0-3.3,0.9-4.6,2.7l-3.5-4.2c2.3-3.2,4.6-4.7,8.2-4.7
			c4.8,0,8.7,3,8.7,9c0,3.5-1.4,5.5-2.7,6.5c1.5,0.8,3.7,2.8,3.7,7C60.3,43.6,56.4,47.1,50.5,47.1z"/>
		<path class="st3" d="M74.2,33.4h-5.4l1.5-5.8c0.5-1.9,0.9-3.8,1.2-5c0.2,1.2,0.7,3.1,1.2,5L74.2,33.4z M82.8,46.6l-9-31.8h-4.6
			l-9.1,31.8h5.1l1.9-7.1h8.7l1.9,7.1H82.8z"/>
	</g>
</g>
</svg>
