<svg id="a8c6ef26-e92c-46e3-80f7-6ae7d7310b92" data-name="Layer 1" xmlns="http://www.w3.org/2000/svg" viewBox="0 0 89.19 89.19"><defs><style>.\38 06bb34e-4c14-43b6-be12-508fff17bf79{fill:#fff;}.\34 ce2ab41-6a00-4b0f-8f25-3186be8be6da{fill:#231f20;}.\32 4036717-d30a-4967-bce4-7b4618aeaa86{fill:#eed21b;}.\32 bd5024a-f3a6-4c7e-8679-9f463bdcbeae{fill:#efd31c;}</style></defs><title>183N_Toll_Shield</title><rect class="806bb34e-4c14-43b6-be12-508fff17bf79" x="2.11" y="2.11" width="84.97" height="84.97"/><path class="4ce2ab41-6a00-4b0f-8f25-3186be8be6da" d="M96.89,10.52v85h-85v-85h85M99,8.41H9.81V97.6H99V8.41Z" transform="translate(-9.81 -8.41)"/><path class="24036717-d30a-4967-bce4-7b4618aeaa86" d="M47.39,62.82c.08-.59.17-1.19.26-1.78.17-1.07.39-2.11.59-3.08l0-.26L48,57.65a11.87,11.87,0,0,1-1.74-.48l-.27-.1-.07.28c-.25,1-.47,2.11-.67,3.29-.11.62-.21,1.24-.29,1.87l-.11.81a17.86,17.86,0,0,0,2.39.59Z" transform="translate(-9.81 -8.41)"/><path class="24036717-d30a-4967-bce4-7b4618aeaa86" d="M52.88,44.32l.2.08.23-.41c.46-.81,1-1.57,1.54-2.37l.46-.66.19-.28-.32-.11c-.26-.09-.54-.17-.83-.24l-.16,0L53,41.84c-.33.43-.67.87-1,1.31l-.18.27c0,.07-.09.13-.13.19l-.21.31.36.09c.37.09.71.2,1,.31" transform="translate(-9.81 -8.41)"/><path class="24036717-d30a-4967-bce4-7b4618aeaa86" d="M55.61,40.17l.19.07,1.68-2.48-.37-.08c-.2,0-.41-.09-.61-.12l-.15,0-1.8,2.3.36.11a6.35,6.35,0,0,1,.7.23" transform="translate(-9.81 -8.41)"/><path class="24036717-d30a-4967-bce4-7b4618aeaa86" d="M48.53,55.63l.24,0,.06-.23c.38-1.49.83-3,1.33-4.44l.08-.23L50,50.68a9.09,9.09,0,0,0-1.59-.43l-.21,0-.07.19a45.71,45.71,0,0,0-1.52,4.41l-.06.22.21.09a10.72,10.72,0,0,0,1.75.5" transform="translate(-9.81 -8.41)"/><path class="24036717-d30a-4967-bce4-7b4618aeaa86" d="M50.55,49.21l.24.09.09-.24c.28-.7.54-1.31.79-1.86s.57-1.19.9-1.84l.14-.27L52.43,45c-.47-.16-.93-.27-1.23-.34l-.17,0-.1.15A33.8,33.8,0,0,0,49,48.45l-.14.29.32.07a8.44,8.44,0,0,1,1.38.4" transform="translate(-9.81 -8.41)"/><polygon class="4ce2ab41-6a00-4b0f-8f25-3186be8be6da" points="21.26 50.75 17.36 50.75 17.36 14.43 12.78 14.43 8.41 16.19 8.41 20.9 12.26 19.59 12.26 50.75 8.41 50.75 8.41 55.25 21.26 55.25 21.26 50.75"/><path class="4ce2ab41-6a00-4b0f-8f25-3186be8be6da" d="M85,57.13a7.43,7.43,0,0,1-2.32,1.55,6.91,6.91,0,0,1-2.7.56,8.45,8.45,0,0,1-5-1.41A7.24,7.24,0,0,1,72.15,54h-5.1a10.59,10.59,0,0,0,1,3.43,11,11,0,0,0,2.47,3.32,11.3,11.3,0,0,0,4.07,2.45A14.15,14.15,0,0,0,79.4,64a13.48,13.48,0,0,0,5-.92,12.7,12.7,0,0,0,4.05-2.54,12,12,0,0,0,2.73-3.83,11.56,11.56,0,0,0,1-4.82,11,11,0,0,0-.48-3.32,10.15,10.15,0,0,0-1.3-2.71,9.67,9.67,0,0,0-1.92-2.06,9.37,9.37,0,0,0-2.35-1.34,10.87,10.87,0,0,0,2.57-1.72,9.4,9.4,0,0,0,1.74-2.14,9.51,9.51,0,0,0,1-2.43,10.57,10.57,0,0,0,.31-2.54,9.77,9.77,0,0,0-.89-4.07A10.94,10.94,0,0,0,88.33,26a12.46,12.46,0,0,0-3.94-2.5,13.5,13.5,0,0,0-5.15-.94,11.87,11.87,0,0,0-4.38.82,12.05,12.05,0,0,0-3.66,2.23,12.27,12.27,0,0,0-2.59,3.27,9.74,9.74,0,0,0-1.16,4.17h5a5.47,5.47,0,0,1,1.38-3.3,6.45,6.45,0,0,1,5.41-2.57,7.74,7.74,0,0,1,3.28.65,7.11,7.11,0,0,1,2.31,1.65,6.76,6.76,0,0,1,1.36,2.17,6.34,6.34,0,0,1-.09,4.81,6.18,6.18,0,0,1-1.47,2.11A6.87,6.87,0,0,1,82.33,40a9.07,9.07,0,0,1-3.14.52H77.33v4h2.28a8.25,8.25,0,0,1,2.91.52,7.51,7.51,0,0,1,2.4,1.46,7,7,0,0,1,1.65,2.3,7.37,7.37,0,0,1,.61,3,7.09,7.09,0,0,1-.61,2.94A8,8,0,0,1,85,57.13" transform="translate(-9.81 -8.41)"/><path class="4ce2ab41-6a00-4b0f-8f25-3186be8be6da" d="M58.46,60.5a12.64,12.64,0,0,0,2.78-3.86,11.14,11.14,0,0,0,1-4.73,11.27,11.27,0,0,0-.44-3.13A11.55,11.55,0,0,0,60.59,46a12.64,12.64,0,0,0-1.91-2.42c-.34-.33-.7-.63-1.07-.93a21.81,21.81,0,0,0-2.3,4.13,7.78,7.78,0,0,1,1.48,2.15,6.83,6.83,0,0,1,.64,2.92,6.94,6.94,0,0,1-.64,3,7.67,7.67,0,0,1-1.74,2.43,8.53,8.53,0,0,1-2.56,1.65,7.38,7.38,0,0,1-1.84.5c.39-2,1.17-5.62,2.19-9h0s1.49-5.88,4.89-9.61a14.15,14.15,0,0,0,2.76-5.54,10.35,10.35,0,0,0,.2-2,9.54,9.54,0,0,0-.89-4.1,10.64,10.64,0,0,0-2.43-3.36,11.63,11.63,0,0,0-7.88-3.08,11.83,11.83,0,0,0-4.43.83,11.25,11.25,0,0,0-3.6,2.25,10.55,10.55,0,0,0-2.4,3.36,9.68,9.68,0,0,0-.88,4.1A9.86,9.86,0,0,0,39.36,38a10.8,10.8,0,0,0,3.2,3.65,12.28,12.28,0,0,0-2.51,1.9,12.74,12.74,0,0,0-1.94,2.41,11.44,11.44,0,0,0-1.24,2.84,11.48,11.48,0,0,0,.58,7.88,12.78,12.78,0,0,0,2.77,3.86,13,13,0,0,0,4.12,2.61c.26.11.53.2.8.29v0a.24.24,0,0,1,0-.07l.09-.74c.09-.62.18-1.24.29-1.86.19-1.09.41-2.19.67-3.27A11.21,11.21,0,0,0,48,57.9c-.22,1-.42,2.06-.59,3.1-.1.59-.18,1.19-.26,1.79l-.11.9v.17a14,14,0,0,0,2.36.21,13.17,13.17,0,0,0,9.08-3.57M53.09,43.86l-.12.22a9.71,9.71,0,0,0-1.06-.32c.11-.15.2-.31.31-.46.36-.51.74-1,1.12-1.5l.95-1.22c.25.06.53.14.81.23-.7,1-1.42,2-2,3m4-5.93-1.36,2L55,39.69l1.47-1.88.6.12M43.52,57a7.51,7.51,0,0,1-1.6-2.28,7.09,7.09,0,0,1-.63-3,7,7,0,0,1,.63-2.92,7.87,7.87,0,0,1,1.74-2.41,8.29,8.29,0,0,1,2.58-1.64,9,9,0,0,1,1.28-.39,17.8,17.8,0,0,1,4-4.51c-.9-.13-2.66-.28-2.66-.28h0a6.66,6.66,0,0,1-2.06-.47,6.83,6.83,0,0,1-2.14-1.37,6.34,6.34,0,0,1-1.41-2,6.35,6.35,0,0,1,0-4.94,6.19,6.19,0,0,1,1.41-2,6.49,6.49,0,0,1,2.14-1.37A7,7,0,0,1,49.49,27a6.45,6.45,0,0,1,2.55.51,6.8,6.8,0,0,1,2.11,1.37,6.46,6.46,0,0,1,1.45,2,5.88,5.88,0,0,1,.53,2.46A6,6,0,0,1,56,34.5h0c-.42,2.46-3.38,5.61-3.38,5.61a41.72,41.72,0,0,0-3.51,4.14h0A38.48,38.48,0,0,0,43.52,57m5.06-1.66a10,10,0,0,1-1.7-.49c.43-1.48.93-3,1.5-4.38a7.45,7.45,0,0,1,1.54.41c-.51,1.46-1,2.95-1.34,4.46m.64-6.83a36.19,36.19,0,0,1,1.93-3.64,10.92,10.92,0,0,1,1.2.33c-.32.61-.62,1.23-.91,1.85s-.54,1.25-.79,1.88a8.88,8.88,0,0,0-1.43-.42" transform="translate(-9.81 -8.41)"/><polygon class="2bd5024a-f3a6-4c7e-8679-9f463bdcbeae" points="17.63 65.59 10.56 57.97 8.41 57.97 8.41 68.98 10.59 68.98 10.59 61.15 17.82 68.98 19.81 68.98 19.81 57.97 17.63 57.97 17.63 65.59"/><path class="2bd5024a-f3a6-4c7e-8679-9f463bdcbeae" d="M46.74,72.6c0-.28,0-.54,0-.73s0-.46,0-.73c0-2.87-1.94-5-6.64-5-4.38,0-6.62,2.08-6.62,5V72.6c0,3.14,2.31,5,6.62,5s6.61-2.09,6.64-5m-11,.18c0-.18,0-.72,0-.9s0-.73,0-.89c.08-1.77,1.7-2.74,4.32-2.74s4.24,1,4.34,2.75v1.72c-.08,1.67-1.32,2.78-4.34,2.78-2.82,0-4.21-1-4.32-2.72" transform="translate(-9.81 -8.41)"/><polygon class="2bd5024a-f3a6-4c7e-8679-9f463bdcbeae" points="54.84 60.03 59.86 60.03 59.86 68.98 62.1 68.98 62.1 60.03 67.11 60.03 67.11 57.97 54.84 57.97 54.84 60.03"/><polygon class="2bd5024a-f3a6-4c7e-8679-9f463bdcbeae" points="79.41 68.98 81.62 68.98 81.62 57.97 79.41 57.97 79.41 62.44 72.45 62.44 72.45 57.97 70.25 57.97 70.25 68.98 72.45 68.98 72.45 64.51 79.41 64.51 79.41 68.98"/><path class="2bd5024a-f3a6-4c7e-8679-9f463bdcbeae" d="M59.3,72.9c1.54-.23,2.41-1.7,2.41-3.48s-1.22-3-3.94-3H50.58v11h2.2V73.26h3.69l3.64,4.14h2.67L58.92,73l.38-.09m-6.52-1.61V68.42h4.6c1.25,0,1.82.29,2,.94a1.31,1.31,0,0,1,.1.5,2.09,2.09,0,0,1-.08.51c-.24.66-.77.92-2,.92Z" transform="translate(-9.81 -8.41)"/><polygon class="2bd5024a-f3a6-4c7e-8679-9f463bdcbeae" points="10.89 73.64 9.89 71.22 8.42 71.22 8.42 75.25 9.52 75.25 9.52 72.9 10.48 75.25 11.26 75.25 12.21 72.89 12.21 75.25 13.34 75.25 13.34 71.22 11.88 71.22 10.89 73.64"/><path class="2bd5024a-f3a6-4c7e-8679-9f463bdcbeae" d="M28.77,81.13c0-.92-.65-1.57-2.13-1.57s-2.08.67-2.11,1.57c0,.08,0,.31,0,.51s0,.42,0,.51c0,1,.7,1.57,2.11,1.57s2.1-.65,2.13-1.57c0-.16,0-.36,0-.51v-.51m-1.27,1c0,.37-.26.62-.86.62s-.82-.22-.85-.6c0-.1,0-.42,0-.52s0-.4,0-.53c0-.38.33-.61.85-.61s.83.23.86.62c0,.09,0,.29,0,.51s0,.42,0,.51" transform="translate(-9.81 -8.41)"/><path class="2bd5024a-f3a6-4c7e-8679-9f463bdcbeae" d="M33.31,81.51a.59.59,0,0,0,.52-.59c0-.06,0-.15,0-.23s0-.19,0-.25c0-.45-.37-.81-1.17-.81H30.14v4h2.65c.69,0,1.22-.29,1.25-.91,0-.06,0-.17,0-.28s0-.2,0-.26a.79.79,0,0,0-.73-.7m-2-1h.95c.22,0,.33.06.38.2a.92.92,0,0,1,0,.19,1,1,0,0,1,0,.19c0,.13-.15.19-.38.19H31.3Zm1.5,2c0,.15-.13.25-.4.25H31.3v-.84h1.09c.27,0,.36.08.4.25a.72.72,0,0,1,0,.17.86.86,0,0,1,0,.17" transform="translate(-9.81 -8.41)"/><rect class="2bd5024a-f3a6-4c7e-8679-9f463bdcbeae" x="25.68" y="71.22" width="1.2" height="4.04"/><polygon class="2bd5024a-f3a6-4c7e-8679-9f463bdcbeae" points="29.75 71.22 28.55 71.22 28.55 75.25 31.73 75.25 31.73 74.26 29.75 74.26 29.75 71.22"/><rect class="2bd5024a-f3a6-4c7e-8679-9f463bdcbeae" x="33.11" y="71.22" width="1.2" height="4.04"/><polygon class="2bd5024a-f3a6-4c7e-8679-9f463bdcbeae" points="35.49 72.16 36.88 72.16 36.88 75.25 38.08 75.25 38.08 72.16 39.46 72.16 39.46 71.22 35.49 71.22 35.49 72.16"/><polygon class="2bd5024a-f3a6-4c7e-8679-9f463bdcbeae" points="42.49 72.75 41.57 71.22 40.28 71.22 41.81 73.89 41.81 75.25 43.05 75.25 43.05 73.87 44.63 71.22 43.41 71.22 42.49 72.75"/><path class="2bd5024a-f3a6-4c7e-8679-9f463bdcbeae" d="M60,79.63H57.64v4h1.19V82.39h1.26c.75,0,1.27-.31,1.32-1.11v-.57c0-.68-.5-1.09-1.39-1.09m.22,1.68a.43.43,0,0,1-.47.34h-.94V80.57h.9a.45.45,0,0,1,.49.31.83.83,0,0,1,0,.22c0,.07,0,.16,0,.21" transform="translate(-9.81 -8.41)"/><path class="2bd5024a-f3a6-4c7e-8679-9f463bdcbeae" d="M72.27,81.13c0-.92-.64-1.57-2.12-1.57s-2.08.67-2.12,1.57v1c0,1,.71,1.57,2.12,1.57s2.09-.65,2.12-1.57c0-.16,0-.36,0-.51s0-.36,0-.51m-1.26,1c0,.37-.26.62-.86.62s-.82-.22-.85-.6c0-.1,0-.42,0-.52s0-.4,0-.53c0-.38.34-.61.86-.61s.83.23.86.62c0,.09,0,.29,0,.51s0,.42,0,.51" transform="translate(-9.81 -8.41)"/><path class="2bd5024a-f3a6-4c7e-8679-9f463bdcbeae" d="M74.67,82.26c0,.28-.16.48-.56.48a3,3,0,0,1-.77-.16v.92a3.3,3.3,0,0,0,.94.21c1.1,0,1.59-.51,1.59-1.34V79.63h-1.2Z" transform="translate(-9.81 -8.41)"/><polygon class="2bd5024a-f3a6-4c7e-8679-9f463bdcbeae" points="68.92 73.59 71.07 73.59 71.07 72.87 68.92 72.87 68.92 72.16 71.17 72.16 71.17 71.22 67.75 71.22 67.75 75.25 71.19 75.25 71.19 74.31 68.92 74.31 68.92 73.59"/><path class="2bd5024a-f3a6-4c7e-8679-9f463bdcbeae" d="M84.47,80.53c.53,0,.74.23.79.51a2.28,2.28,0,0,1,0,.27h1.2c0-.11,0-.27,0-.36-.09-.77-.71-1.39-2-1.39s-2.06.72-2.08,1.55c0,.09,0,.33,0,.53s0,.39,0,.54c0,.88.65,1.54,2.07,1.54s1.92-.63,2-1.4c0-.1,0-.26,0-.36H85.26a2.16,2.16,0,0,1,0,.28c0,.34-.27.51-.75.51s-.79-.19-.83-.61c0-.1,0-.38,0-.49s0-.4,0-.51c0-.41.35-.61.81-.61" transform="translate(-9.81 -8.41)"/><polygon class="2bd5024a-f3a6-4c7e-8679-9f463bdcbeae" points="77.94 72.16 79.32 72.16 79.32 75.25 80.53 75.25 80.53 72.16 81.91 72.16 81.91 71.22 77.94 71.22 77.94 72.16"/><path class="2bd5024a-f3a6-4c7e-8679-9f463bdcbeae" d="M66,82.07c.55-.09.63-.81.63-1.39s-.39-1.05-1.32-1.05H62.86v4h1.19V82.13h.37l1.35,1.53h1.37l-1.38-1.57.25,0m-.57-.94c0,.21-.18.27-.48.28h-.91v-.84H65c.32,0,.45.11.49.28a.68.68,0,0,1,0,.14.59.59,0,0,1,0,.14" transform="translate(-9.81 -8.41)"/></svg>