<svg id="3aba6868-664a-4e92-b963-019a8166f2c6" data-name="726f05e7-a19b-4b6c-8382-24b15271bb4d" xmlns="http://www.w3.org/2000/svg" viewBox="0 0 89.5 89.51"><defs><style>.d84680ee-232c-4b8f-8383-6f087264ca84{fill:#fff;stroke:#231f20;stroke-miterlimit:10;fill-rule:evenodd;}.f424e638-a39a-45a6-b81c-ebb9e6f4d4ea{fill:#fcb116;}.\30 a67247e-76d0-4492-b2ac-de7c469cab1a{fill:#58595b;}.f80b5cf7-71a0-4526-b298-0c31d8be7a9c{fill:#0055a3;}</style></defs><title>290130_Toll_Shield</title><path class="d84680ee-232c-4b8f-8383-6f087264ca84" d="M3.86.74H86.69a3,3,0,0,1,2.89,2.91V86.36a3,3,0,0,1-2.89,2.9H3.86a2.93,2.93,0,0,1-2.78-2.9V3.65A2.94,2.94,0,0,1,3.86.74Z" transform="translate(-0.58 -0.24)"/><path class="f424e638-a39a-45a6-b81c-ebb9e6f4d4ea" d="M82.25,40.18a1.07,1.07,0,0,1-1.06-1A34.95,34.95,0,0,0,11.81,35l-.25,1.48,2.3-1.85a.87.87,0,0,1,.53-.18.84.84,0,0,1,.65.29.86.86,0,0,1,.2.63.84.84,0,0,1-.31.58L11,39.16a1.27,1.27,0,0,1-1.51,0L6.68,35.46a.86.86,0,0,1-.16-.62.83.83,0,0,1,.33-.54.79.79,0,0,1,.49-.17.82.82,0,0,1,.66.33l1.45,1.92L9.66,35a37.07,37.07,0,0,1,73.67,4.25A1.12,1.12,0,0,1,82.25,40.18Z" transform="translate(-0.58 -0.24)"/><path class="0a67247e-76d0-4492-b2ac-de7c469cab1a" d="M38.31,37.55l-4,2a1.19,1.19,0,0,1-.56.14,1.27,1.27,0,0,1-1-.5l-2.25-3.83a.88.88,0,0,1,.32-1.14.74.74,0,0,1,1.07.24L33,36.39l.39-1A13.93,13.93,0,0,1,60.1,39a1.11,1.11,0,0,1-.26.86A1.06,1.06,0,0,1,58,39.23a11.8,11.8,0,0,0-22.55-3.14l-.6,1.35,2.71-1.32a.77.77,0,0,1,1,.37A.79.79,0,0,1,38.31,37.55Z" transform="translate(-0.58 -0.24)"/><path class="f80b5cf7-71a0-4526-b298-0c31d8be7a9c" d="M21.66,39.53a1.07,1.07,0,0,1-.77-.35,1,1,0,0,1-.27-.81,25.53,25.53,0,0,1,50.44-3l.25,1.21,1.3-1.66a.82.82,0,0,1,.67-.31.78.78,0,0,1,.48.17.8.8,0,0,1,.32.55.79.79,0,0,1-.17.61l-2.63,3.34a1.29,1.29,0,0,1-1.06.5,1.26,1.26,0,0,1-.83-.31l-3.73-3.14a.85.85,0,0,1-.3-.59.83.83,0,0,1,.21-.62.84.84,0,0,1,.65-.29.88.88,0,0,1,.52.2l2.54,2.11-.36-1.64a23.42,23.42,0,0,0-46.19,3.05A1.06,1.06,0,0,1,21.66,39.53Z" transform="translate(-0.58 -0.24)"/><path class="0a67247e-76d0-4492-b2ac-de7c469cab1a" d="M25.05,59.38a8.49,8.49,0,0,1,1.66-4.67,8.56,8.56,0,0,0,1.7-4.62V48.41c0-.65-.28-1-.84-1s-.84.32-.84,1V51H25.05V49.46q0-3.7,2.52-3.7t2.52,3.7v.92a8.54,8.54,0,0,1-1.66,4.75,8.42,8.42,0,0,0-1.68,4.48V60.9h3.34v1.68h-5Z" transform="translate(-0.58 -0.24)"/><path class="0a67247e-76d0-4492-b2ac-de7c469cab1a" d="M31.29,57.34H33v2.59c0,.64.28,1,.84,1s.84-.33.84-1v-4.1a1.27,1.27,0,0,1-.84.31q-2.52,0-2.52-3.7v-3q0-3.7,2.52-3.7t2.53,3.7v9.42c0,2.46-.84,3.7-2.53,3.7s-2.52-1.24-2.52-3.7ZM33,53.47q0,1,.84,1t.84-.9V48.41c0-.65-.28-1-.84-1s-.84.32-.84,1Z" transform="translate(-0.58 -0.24)"/><path class="0a67247e-76d0-4492-b2ac-de7c469cab1a" d="M43,58.88c0,2.46-.84,3.7-2.52,3.7S38,61.34,38,58.88V49.46q0-3.7,2.52-3.7T43,49.46ZM41.32,48.41c0-.65-.28-1-.84-1s-.84.32-.84,1V59.93c0,.64.28,1,.84,1s.84-.33.84-1Z" transform="translate(-0.58 -0.24)"/><path class="0a67247e-76d0-4492-b2ac-de7c469cab1a" d="M50.35,47.44c.62,0,.93-.43.93-1.28v-.4H53V62.58H51.28V49.12h-.93Z" transform="translate(-0.58 -0.24)"/><path class="0a67247e-76d0-4492-b2ac-de7c469cab1a" d="M58.37,48.41c0-.65-.28-1-.85-1s-.84.32-.84,1V51H55V49.46q0-3.7,2.52-3.7t2.53,3.7v1.68c0,1.51-.35,2.47-1,2.86.68.39,1,1.34,1,2.86v2c0,2.46-.84,3.7-2.53,3.7S55,61.34,55,58.88V56.8h1.68v3.13c0,.64.28,1,.84,1s.85-.33.85-1V55.81c0-.62-.28-.94-.82-1H57V53.16h.63c.49,0,.74-.32.74-1Z" transform="translate(-0.58 -0.24)"/><path class="0a67247e-76d0-4492-b2ac-de7c469cab1a" d="M67.13,58.88c0,2.46-.84,3.7-2.52,3.7s-2.52-1.24-2.52-3.7V49.46q0-3.7,2.52-3.7t2.52,3.7ZM65.45,48.41c0-.65-.28-1-.84-1s-.84.32-.84,1V59.93c0,.64.28,1,.84,1s.84-.33.84-1Z" transform="translate(-0.58 -0.24)"/><rect class="f424e638-a39a-45a6-b81c-ebb9e6f4d4ea" x="45.74" y="42.99" width="0.91" height="21.59"/><path class="0a67247e-76d0-4492-b2ac-de7c469cab1a" d="M14.57,49H13.35V51H11.76V49h-3V45.66h8v7.08H14.57Z" transform="translate(-0.58 -0.24)"/><path class="0a67247e-76d0-4492-b2ac-de7c469cab1a" d="M11,62.47l7.21-3.42,1.4,3-5.08,2.41,1.57,3.31-2.12,1Z" transform="translate(-0.58 -0.24)"/><path class="0a67247e-76d0-4492-b2ac-de7c469cab1a" d="M24.64,76.47l-1.88,2.15-2.47-2.16,1.91-2.18,1.2-5.7,2.68,2.35-.75,2.6,2.41-1.16,2.47,2.16Z" transform="translate(-0.58 -0.24)"/><path class="0a67247e-76d0-4492-b2ac-de7c469cab1a" d="M36.31,85.71c-2.49-.67-3.61-2.51-3.1-4.43l.39-1.47c.52-1.92,2.4-3,4.9-2.29s3.61,2.5,3.1,4.42l-.4,1.47C40.69,85.33,38.8,86.37,36.31,85.71Zm2.12-4.9c.15-.55,0-.92-.52-1.06s-.85.1-1,.66l-.53,2c-.15.54,0,.91.53,1s.84-.1,1-.65Z" transform="translate(-0.58 -0.24)"/><path class="0a67247e-76d0-4492-b2ac-de7c469cab1a" d="M54.9,85.69l-3.12.63L47.4,79.06l3.42-.68,2.07,4.09.32-4.58,3-.6Z" transform="translate(-0.58 -0.24)"/><path class="0a67247e-76d0-4492-b2ac-de7c469cab1a" d="M66,81.09l-4.87-6.32,5.53-4.26L68,72.26l-2.92,2.25.6.77,1.84-1.41L68.4,75l-1.84,1.42.6.78L70.08,75l1.44,1.87Z" transform="translate(-0.58 -0.24)"/><path class="0a67247e-76d0-4492-b2ac-de7c469cab1a" d="M79.9,64.94c-.18.36-.85.39-1.43.1l-.88-.44c-.38-.19-.66-.21-.88.23l-.23.44,2.6,1.31-1.46,2.93-7.13-3.57,2.15-4.3c.8-1.61,2-2.15,3.07-1.62l.43.21a1.65,1.65,0,0,1,.79,2,1.43,1.43,0,0,1,2-.59l.91.46a2.21,2.21,0,0,0,1.28.23l.07,0Zm-5.18-1.79c-.31-.16-.51-.06-.7.33l-.22.45,1.34.67.23-.44c.19-.39.11-.63-.2-.79Z" transform="translate(-0.58 -0.24)"/><path class="0a67247e-76d0-4492-b2ac-de7c469cab1a" d="M83.46,49.72a6.4,6.4,0,0,1-1.53,4.2L80.2,52.51a5.24,5.24,0,0,0,1.18-2.74c0-.52-.1-.78-.37-.78-.83,0-.83,4.38-3.46,4.34-1.42,0-2.6-1.24-2.56-3.62a5.53,5.53,0,0,1,1.47-3.91L78,47.24a5,5,0,0,0-.93,2.4c0,.4.11.66.37.67.83,0,.75-4.48,3.37-4.44C82.34,45.9,83.5,47.19,83.46,49.72Z" transform="translate(-0.58 -0.24)"/></svg>