<?xml version="1.0" encoding="utf-8"?>
<!-- Generator: Adobe Illustrator 22.1.0, SVG Export Plug-In . SVG Version: 6.00 Build 0)  -->
<svg version="1.1" id="de40f591-4bb4-4fe6-84f4-86983d5dc360"
	 xmlns="http://www.w3.org/2000/svg" xmlns:xlink="http://www.w3.org/1999/xlink" x="0px" y="0px" viewBox="0 0 89.8 89.8"
	 style="enable-background:new 0 0 89.8 89.8;" xml:space="preserve">
<style type="text/css">
	.st0{fill-rule:evenodd;clip-rule:evenodd;fill:#EBB01F;stroke:#231F20;stroke-miterlimit:10;}
	.st1{fill-rule:evenodd;clip-rule:evenodd;fill:#0056A1;}
	.st2{fill:#221F1F;}
	.st3{fill:#FFFFFF;}
	.st4{fill:#ECA820;}
	.st5{fill:#0155A3;}
</style>
<g>
	<title>290_Toll_Shield</title>
	<path class="st0" d="M3.8,0.8h82.1c1.5,0,2.9,1.3,2.9,2.9v82c0,1.5-1.3,2.9-2.9,2.9H3.8c-1.4,0-2.8-1.3-2.8-2.9v-82
		C1,2.1,2.4,0.8,3.8,0.8z"/>
	<path class="st1" d="M6.3,3.4h77.1c2.4,0,2,0.7,2.1,2.1v51.7H3.8V5.5C3.9,3.7,4,3.4,6.3,3.4z"/>
	<g>
		<path class="st2" d="M38.7,68.1v12.8h-3V68.1h-4.3v-3.1H43v3.1H38.7z"/>
		<path class="st2" d="M54.4,72.9c0,2.9-1,5.1-3.5,5.1c-2.4,0-3.5-2.2-3.5-5.1c0-2.9,1-5.1,3.5-5.1C53.3,67.8,54.4,70,54.4,72.9z
			 M57.5,72.9c0-4.9-2.4-8.2-6.6-8.2c-4.1,0-6.6,3.4-6.6,8.2c0,4.9,2.4,8.2,6.6,8.2C55,81.1,57.5,77.8,57.5,72.9z"/>
		<path class="st2" d="M60.5,80.9v-16h3v12.8h7.6v3.1H60.5z"/>
		<path class="st2" d="M73.8,80.9v-16h3v12.8h7.6v3.1H73.8z"/>
	</g>
	<g>
		<circle class="st3" cx="16.9" cy="72.7" r="10.5"/>
		<path class="st4" d="M11.3,80.2l0.1-0.1c3.3-5,8.3-8.7,14.2-10.3l-6.7,0l-2.1-6.4l-2.1,6.4l-6.7,0l5.4,4L11.3,80.2z"/>
		<path class="st5" d="M17,83.6c-6,0-10.9-4.9-10.9-10.9S10.9,61.8,17,61.8s10.9,4.9,10.9,10.9S23,83.6,17,83.6z M17,62.7
			c-5.5,0-10,4.5-10,10c0,5.5,4.5,10,10,10s10-4.5,10-10C26.9,67.2,22.5,62.7,17,62.7z"/>
		<path class="st5" d="M17,84.4c-6.4,0-11.7-5.2-11.7-11.7S10.5,61,17,61s11.7,5.2,11.7,11.7S23.4,84.4,17,84.4z M17,61.3
			c-6.3,0-11.4,5.1-11.4,11.4S10.7,84.1,17,84.1S28.3,79,28.3,72.7S23.2,61.3,17,61.3z"/>
		<path class="st5" d="M18.2,77.4l4.1,2.8l-1.8-5.7C19.7,74.9,18.5,76.5,18.2,77.4z"/>
		<g>
			<path class="st5" d="M15.2,77.8c-0.9,1.4-1.2,2.4-1.2,2.4l0.8,0c0.3-0.8,0.7-1.5,1.2-2.2L15.2,77.8z"/>
			<path class="st5" d="M19.4,74.1c0.5-0.5,1.1-0.8,1.5-1.1l-0.8-0.1c-0.5,0.3-1,0.7-1.5,1L19.4,74.1z"/>
			<path class="st5" d="M22.8,71.5c-0.5,0.2-1,0.4-1.4,0.6l0.6,0.1c0.5-0.3,0.7-0.4,0.7-0.4l0.5-0.3L22.8,71.5z"/>
			<path class="st5" d="M17.5,74.9c-0.5,0.5-1,1.1-1.4,1.6l0.7,0.2c0.5-0.6,1-1.1,1.4-1.6L17.5,74.9z"/>
		</g>
	</g>
	<g>
		<path class="st3" d="M9.4,47.9c0.1-11.6,5.3-16.6,11.3-20.2c2.1-1.3,2.8-2.6,2.8-4.1c0-1.7-1.1-3.4-4-3.4c-2.9,0-5.3,1.8-7,4
			l-3.2-5.1c2.6-3.6,6.1-5.6,10-5.6c5.8,0,9.1,3.2,9.1,9.7c0,5.4-2.1,7.8-6.3,10.5c-4.4,2.7-6.1,5-6.5,7.6h13.1v6.5H9.4z"/>
		<path class="st3" d="M47.4,24.9c0,3.5-1.9,5.1-5.6,5.1c-3.4,0-5.3-1.6-5.3-5c0-3.1,2.1-5.1,5.6-5.1C45.6,19.9,47.4,21.8,47.4,24.9
			z M53,27.3c0-9.4-4.6-13.6-10.6-13.6c-6.3,0-11.2,4-11.2,11.6c0,7.5,4.1,10.9,9.4,10.9c2.7,0,4.4-0.7,6.1-2.1
			c-1.5,5.2-5.4,7.9-11.6,7.9v6.6C48.8,48.5,53,36.2,53,27.3z"/>
		<path class="st3" d="M74.6,31.1c0,6-1.9,10.8-6.3,10.8C63.8,41.9,62,37,62,31c0-6,1.8-10.7,6.3-10.7C72.7,20.3,74.6,25,74.6,31.1z
			 M80.5,31c0-10.3-4.3-17.3-12.2-17.3c-7.9,0-12.2,7.1-12.2,17.4c0,10.3,4.2,17.4,12.1,17.4C76.2,48.5,80.5,41.2,80.5,31z"/>
	</g>
</g>
</svg>
