<?xml version="1.0" encoding="utf-8"?>
<!-- Generator: Adobe Illustrator 22.1.0, SVG Export Plug-In . SVG Version: 6.00 Build 0)  -->
<svg version="1.1" id="_x32_7cd8ed0-5cdb-4364-bf65-d4c564cae44d"
	 xmlns="http://www.w3.org/2000/svg" xmlns:xlink="http://www.w3.org/1999/xlink" x="0px" y="0px" viewBox="0 0 88.7 88.7"
	 style="enable-background:new 0 0 88.7 88.7;" xml:space="preserve">
<style type="text/css">
	.st0{fill-rule:evenodd;clip-rule:evenodd;fill:#EBB01F;stroke:#231F20;stroke-miterlimit:10;}
	.st1{fill-rule:evenodd;clip-rule:evenodd;fill:#0056A1;}
	.st2{fill:#221F1F;}
	.st3{fill:#FFFFFF;}
	.st4{fill:#ECA820;}
	.st5{fill:#0155A3;}
</style>
<g>
	<title>71_Toll_Shield</title>
	<path class="st0" d="M4,1.1H85c1.5,0,2.8,1.3,2.8,2.8v80.8c0,1.5-1.3,2.8-2.8,2.8H4c-1.4,0-2.7-1.3-2.7-2.8V4
		C1.3,2.4,2.6,1.1,4,1.1z"/>
	<path class="st1" d="M6.5,3.7h76c2.4,0,1.9,0.6,2,2v51H4.1v-51C4.2,4,4.3,3.7,6.5,3.7z"/>
	<g>
		<path class="st2" d="M38.4,67.4v12.6h-3V67.4h-4.3v-3.1h11.5v3.1H38.4z"/>
		<path class="st2" d="M53.9,72.2c0,2.8-1,5-3.4,5S47,75,47,72.2c0-2.8,1-5,3.4-5S53.9,69.4,53.9,72.2z M56.9,72.2
			c0-4.8-2.4-8.1-6.5-8.1c-4.1,0-6.5,3.3-6.5,8.1c0,4.8,2.4,8.1,6.5,8.1C54.5,80.3,56.9,77,56.9,72.2z"/>
		<path class="st2" d="M59.9,80.1V64.3h3v12.6h7.5v3.1H59.9z"/>
		<path class="st2" d="M73,80.1V64.3h3v12.6h7.5v3.1H73z"/>
	</g>
	<path class="st3" d="M35.3,46.8h-6c0-10.6,3.2-19.5,8.7-26.5H23v-6.2h22.1v6.3C39.1,26.9,35.3,35.5,35.3,46.8z"/>
	<path class="st3" d="M53.6,46.8V23.1h-5v-4.8c3.3-0.2,5.4-1.5,6-4.3h4.9v32.7H53.6z"/>
	<g>
		<circle class="st3" cx="17" cy="72" r="10.4"/>
		<path class="st4" d="M11.4,79.4L11.4,79.4c3.3-5,8.3-8.7,14.1-10.2l-6.6,0l-2.1-6.3l-2.1,6.3l-6.6,0l5.4,3.9L11.4,79.4z"/>
		<path class="st5" d="M17,82.7c-5.9,0-10.8-4.8-10.8-10.8c0-5.9,4.8-10.8,10.8-10.8S27.8,66,27.8,72C27.8,77.9,22.9,82.7,17,82.7z
			 M17,62.1c-5.4,0-9.8,4.4-9.8,9.8c0,5.4,4.4,9.8,9.8,9.8s9.8-4.4,9.8-9.8C26.8,66.5,22.4,62.1,17,62.1z"/>
		<path class="st5" d="M17,83.5c-6.3,0-11.5-5.2-11.5-11.5c0-6.3,5.2-11.5,11.5-11.5S28.5,65.6,28.5,72C28.5,78.3,23.3,83.5,17,83.5
			z M17,60.8c-6.2,0-11.2,5-11.2,11.2c0,6.2,5,11.2,11.2,11.2s11.2-5,11.2-11.2C28.2,65.8,23.2,60.8,17,60.8z"/>
		<path class="st5" d="M18.2,76.6l4,2.8l-1.8-5.6C19.7,74.1,18.5,75.8,18.2,76.6z"/>
		<g>
			<path class="st5" d="M15.3,77c-0.8,1.3-1.2,2.3-1.2,2.3l0.8,0c0.3-0.8,0.7-1.5,1.2-2.2L15.3,77z"/>
			<path class="st5" d="M19.4,73.3c0.5-0.4,1-0.8,1.5-1.1l-0.7-0.1c-0.5,0.3-1,0.7-1.4,1L19.4,73.3z"/>
			<path class="st5" d="M22.8,70.8c-0.5,0.2-0.9,0.4-1.4,0.6l0.6,0.1c0.5-0.3,0.7-0.4,0.7-0.4l0.5-0.3L22.8,70.8z"/>
			<path class="st5" d="M17.6,74.2c-0.5,0.5-1,1.1-1.4,1.6l0.7,0.2c0.5-0.6,0.9-1.1,1.4-1.6L17.6,74.2z"/>
		</g>
	</g>
</g>
</svg>
