<svg id="Isolation_Mode" xmlns="http://www.w3.org/2000/svg" viewBox="0 0 205 141.1"><style>.st0{fill:#0355a3}.st1{fill:none;stroke:#edaa00;stroke-width:.25;stroke-miterlimit:10}.st2{fill:#edaa00}.st3{fill:none;stroke:#001689;stroke-width:3;stroke-miterlimit:10;stroke-dasharray:12,9}</style><path class="st0" d="M7.5 113.1c-.4-1.5-1.2-2.2-2.5-2.2-1.7 0-2.7 1.5-2.7 4 0 2.4 1.1 3.9 2.7 3.9 1.2 0 2.1-.9 2.5-2.4l.8.3c-.5 1.9-1.6 2.9-3.3 2.9-2.2 0-3.6-1.8-3.6-4.7 0-2.9 1.4-4.7 3.6-4.7 1.6 0 2.8 1 3.3 2.7l-.8.2zm10.6 6.2h-5.8v-8.9h5.6v.8h-4.7v3.1h3.7v.7h-3.7v3.6h4.9v.7zm4.9-7.7v7.7h-.8v-8.9h1.2l4.5 7.7v-7.7h.8v8.9h-1.2l-4.5-7.7zm15.6-.5H36v8.2h-.9v-8.2h-2.6v-.8h6.1v.8zm4.6 4.3v4h-.9v-8.9h3.3c1.7 0 2.7.8 2.7 2.4 0 1.2-.6 2.1-1.7 2.4l1.9 4.1h-1l-1.8-4h-2.5zm2.4-.8c1.2 0 1.8-.6 1.8-1.8 0-1.1-.6-1.7-1.7-1.7h-2.5v3.5h2.4zm12.1 4.7l-.9-2.8h-3.2l-.9 2.8h-.8l2.9-8.9h.9l2.9 8.9h-.9zm-2.5-7.9l-1.4 4.3h2.7l-1.3-4.3zm12.3 7.9h-5.2v-8.9h.9v8.2h4.3v.7zm14.3-8.2h-2.6v8.2h-.9v-8.2h-2.6v-.8h6.1v.8zm9.5 8.2h-5.8v-8.9h5.6v.8h-4.7v3.1h3.7v.7h-3.7v3.6h4.9v.7zm10 0h-1l-2.4-4.1-2.5 4.1h-.8l2.9-4.8-2.4-4.2h1l1.9 3.3 2-3.3h.8l-2.4 4 2.9 5zm8.8 0l-.9-2.8H106l-.9 2.8h-.8l2.9-8.9h.9l2.9 8.9h-.9zm-2.5-7.9l-1.4 4.3h2.7l-1.3-4.3zm7.3 5.5c.4 1.2 1.3 1.9 2.7 1.9 1.4 0 2.3-.8 2.3-1.8 0-.8-.5-1.3-1.4-1.6l-1.8-.5c-.8-.2-1.1-.3-1.5-.7-.5-.4-.7-1-.7-1.7 0-1.4 1.2-2.4 2.9-2.4 1.6 0 2.6.7 3.1 2.1l-.8.2c-.3-1-1.1-1.6-2.3-1.6-1.2 0-2 .6-2 1.6 0 .8.4 1.2 1.5 1.5l1.8.5c1.4.4 2.1 1.1 2.1 2.3 0 1.6-1.3 2.7-3.2 2.7-1.8 0-2.9-.8-3.5-2.4l.8-.1zm16.1-1.5v4h-.9v-8.9h3.3c1.7 0 2.7.8 2.7 2.4 0 1.2-.6 2.1-1.7 2.4l1.9 4.1h-1l-1.8-4H131zm2.4-.8c1.2 0 1.8-.6 1.8-1.8 0-1.1-.6-1.7-1.7-1.7H131v3.5h2.4zm12.8 4.7h-5.8v-8.9h5.6v.8h-4.7v3.1h3.7v.7h-3.7v3.6h4.9v.7zm10.7.2h-.7l-.3-1.2c-.6.8-1.4 1.3-2.5 1.3-2.3 0-3.7-1.8-3.7-4.7 0-2.9 1.5-4.7 3.8-4.7 1.7 0 2.8.8 3.3 2.5l-.9.3c-.4-1.4-1.2-2.1-2.5-2.1-1.8 0-2.8 1.5-2.8 3.9 0 2.5 1.1 4 2.8 4 1.6 0 2.5-1.2 2.5-3.2h-2.4v-.8h3.4v4.7zm4.7-.2v-8.9h.9v8.9h-.9zm12.4-4.4c0 1.3-.3 2.4-.9 3.3-.7.9-1.5 1.3-2.7 1.3-2.2 0-3.6-1.8-3.6-4.7 0-2.8 1.4-4.7 3.6-4.7 2.2.1 3.6 1.9 3.6 4.8zm-6.4-.1c0 2.4 1 4 2.7 4 1.7 0 2.7-1.5 2.7-4 0-2.4-1.1-3.9-2.7-3.9s-2.7 1.5-2.7 3.9zm11.5-3.2v7.7h-.8v-8.9h1.2l4.5 7.7v-7.7h.8v8.9h-1.2l-4.5-7.7zm15.1 7.7l-.9-2.8h-3.2l-.9 2.8h-.8l2.9-8.9h.9l2.9 8.9h-.9zm-2.5-7.9l-1.4 4.3h2.7l-1.3-4.3zm12.4 7.9h-5.2v-8.9h.9v8.2h4.3v.7zm-200.4 8V139H.9v-14.3h5.2l2.5 8.6 2.7-8.6h5.2V139h-3.4v-11.7L9.5 139H7.2l-3.5-11.7zm25.5-.8c1.1 1.4 1.6 3.3 1.6 5.4 0 1.9-.6 3.9-1.6 5.2-1 1.3-2.6 2.1-4.6 2.1-1.9 0-3.4-.7-4.4-2.1-1.1-1.4-1.7-3.3-1.7-5.4 0-2 .6-3.9 1.6-5.2 1.1-1.4 2.6-2.1 4.5-2.1 2.2.1 3.6.7 4.6 2.1zm-6.4 1.9c-.4.8-.6 2.1-.6 3.4 0 3.1.9 4.7 2.7 4.7 1.7 0 2.6-1.5 2.6-4.6s-.8-4.7-2.6-4.7c-1 0-1.7.4-2.1 1.2zm16.9-3.7c1.7 0 2.6.2 3.4.9.9.7 1.3 1.7 1.3 2.8 0 1.6-.8 2.6-2.6 3.2.9.2 1.3.4 1.8.9.7.7 1.2 1.6 1.2 2.6 0 1.1-.5 2.1-1.3 2.9-.9.8-2.1 1.1-3.8 1.1H33v-14.3h6.7zm-3.3 5.6h2.5c.8 0 1.2-.1 1.5-.3.4-.3.6-.8.6-1.3s-.2-.9-.5-1.1c-.4-.3-.6-.4-1.9-.4h-2.3v3.1zm0 6H39c.9 0 1.3-.1 1.7-.3.5-.3.7-.9.7-1.5 0-1.1-.8-1.7-2.3-1.7h-2.7v3.5zm14 2.7H47v-14.3h3.3V139zm11.9-2.9v2.8h-9.1v-14.3h3.4v11.5h5.7zm5 2.9H64v-14.3h3.3V139zm12-11.5h-3.5V139h-3.4v-11.5h-3.6v-2.8h10.5v2.8zm8.2 5.4v6h-3.3v-6l-4.5-8.3h3.9l2.7 5.4 2.7-5.4h3l-4.5 8.3zm22.2 6.1h-3.6l-.9-2.9h-4.6l-.9 2.9h-2.9l4.6-14.3h3.9l4.4 14.3zm-5.2-5.6l-1.5-5-1.5 5h3zm17.7.2c0 2.3-.3 3.4-1.3 4.3s-2.4 1.3-4.3 1.3c-2 0-3.5-.5-4.5-1.4-.9-.9-1.3-2.1-1.3-4.2v-8.9h3.6v8.9c0 1.2.1 1.7.4 2.1.4.5 1.1.8 2 .8s1.7-.3 2.1-.8c.3-.4.4-.9.4-2.1v-8.9h2.9v8.9zm11.8-6.1h-3.5V139h-3.4v-11.5h-3.6v-2.8H134v2.8zm12.5 11.5h-3.3v-5.9h-4.5v5.9h-3.3v-14.3h3.3v5.6h4.5v-5.6h3.3V139zm12.8-12.5c1.1 1.4 1.6 3.3 1.6 5.4 0 1.9-.6 3.9-1.6 5.2-1 1.3-2.6 2.1-4.6 2.1-1.9 0-3.4-.7-4.4-2.1-1.1-1.4-1.7-3.3-1.7-5.4 0-2 .6-3.9 1.6-5.2 1.1-1.4 2.6-2.1 4.5-2.1 2.1.1 3.6.7 4.6 2.1zm-6.5 1.9c-.4.8-.6 2.1-.6 3.4 0 3.1.9 4.7 2.7 4.7 1.7 0 2.6-1.5 2.6-4.6s-.8-4.7-2.6-4.7c-1 0-1.7.4-2.1 1.2zm13.7 10.6h-3.4v-14.3h6.3c1.8 0 2.9.3 3.7 1 .9.8 1.5 2 1.5 3.3 0 1-.4 2.1-1.1 2.8-.3.4-.7.6-1.4.9l2.6 6.3H171l-2.2-5.7h-2.4v5.7zm0-8.1h2.1c1.1 0 1.4 0 1.8-.3.5-.3.8-.9.8-1.6 0-.6-.3-1.1-.7-1.4-.4-.3-.7-.4-2-.4h-2v3.7zm13.9 8.1h-3.3v-14.3h3.3V139zm11.9-11.5h-3.5V139h-3.4v-11.5h-3.6v-2.8h10.5v2.8zm8.3 5.4v6h-3.3v-6l-4.5-8.3h3.9l2.7 5.4 2.7-5.4h3l-4.5 8.3zm-97.6-45c-23.3 0-42.3-19-42.3-42.3S79.7 3.4 103 3.4s42.3 19 42.3 42.3-19 42.2-42.3 42.2zM103 7C81.7 7 64.3 24.3 64.3 45.6S81.7 84.3 103 84.3s38.7-17.4 38.7-38.7S124.3 7 103 7z"/><path class="st2" d="M81.1 74.8l.4-.3c12.6-19.3 32.1-33.7 54.9-39.9h-26.1l-8.1-24.8-8.1 24.8H68L89.1 50l-8 24.8z"/><path class="st0" d="M103 90.9c-24.9 0-45.2-20.3-45.2-45.2S78.1.4 103 .4s45.2 20.3 45.2 45.2-20.3 45.3-45.2 45.3zm0-89.3c-24.3 0-44 19.8-44 44s19.8 44 44 44 44-19.8 44-44-19.7-44-44-44z"/><path class="st0" d="M107.7 63.8l15.7 10.9-7-22.2c-2.9 1.6-7.5 8-8.7 11.3zm-11.5 1.7c-3.3 5.3-4.7 9.1-4.7 9.1l3 .1c1.3-3.1 2.9-5.9 4.6-8.5l-2.9-.7zM112.6 51c2.1-1.7 4.1-3.2 5.9-4.4l-2.9-.4c-2 1.3-3.9 2.6-5.6 4l2.6.8zm13.1-9.8c-1.9.7-3.7 1.5-5.4 2.3l2.5.3c1.8-1 2.9-1.5 2.9-1.5l1.9-1-1.9-.1zm-20.5 13.1c-2.1 2.1-3.9 4.2-5.5 6.2l2.8.8c1.8-2.3 3.7-4.4 5.6-6.2l-2.9-.8z"/></svg>