<?xml version="1.0" encoding="utf-8"?>
<!-- Generator: Adobe Illustrator 22.1.0, SVG Export Plug-In . SVG Version: 6.00 Build 0)  -->
<svg version="1.1" id="b5d03d80-2b3f-482b-b254-f195d2ed144b"
	 xmlns="http://www.w3.org/2000/svg" xmlns:xlink="http://www.w3.org/1999/xlink" x="0px" y="0px" viewBox="0 0 74 89.9"
	 style="enable-background:new 0 0 74 89.9;" xml:space="preserve">
<style type="text/css">
	.st0{fill:#EBA900;}
	.st1{fill:none;stroke:#231F20;stroke-width:1.1904;}
	.st2{fill:#231F20;}
	.st3{fill:#0056A1;}
	.st4{fill:none;}
	.st5{enable-background:new    ;}
	.st6{fill:#0055A3;}
	.st7{fill:none;stroke:#231F20;stroke-width:0.6357;}
	.st8{fill:#FFFFFF;}
	.st9{fill:#ECA820;}
	.st10{fill:#0155A3;}
</style>
<g>
	<title>MoPac_Express_1_Shield</title>
	<path class="st0" d="M3.3,0.7h67.5c1.3,0,2.4,1.3,2.4,2.9v82.8c0,1.6-1.1,2.9-2.4,2.9H3.3C2.1,89.3,1,88,1,86.4V3.6
		C1,2,2.1,0.7,3.3,0.7z"/>
	<path class="st1" d="M3.3,0.8h67.5c1.3,0,2.4,1.3,2.4,2.9v82.6c0,1.6-1.1,2.9-2.4,2.9H3.3c-1.2,0-2.3-1.3-2.3-2.9V3.7
		C1,2.1,2.1,0.8,3.3,0.8z"/>
	<path class="st2" d="M32.5,72.9v10.5h-2.4V72.9h-3.5v-2.6H36v2.6H32.5z"/>
	<path class="st2" d="M45.2,76.9c0,2.3-0.8,4.2-2.8,4.2s-2.8-1.8-2.8-4.2c0-2.3,0.8-4.2,2.8-4.2C44.4,72.8,45.2,74.6,45.2,76.9z
		 M47.7,76.9c0-4-2-6.8-5.3-6.8s-5.3,2.8-5.3,6.8s2,6.8,5.3,6.8C45.7,83.7,47.7,80.9,47.7,76.9z"/>
	<path class="st2" d="M50.1,83.5V70.4h2.4v10.5h6.1v2.6H50.1z"/>
	<path class="st2" d="M60.9,83.5V70.4h2.4v10.5h6.1v2.6H60.9z"/>
	<path class="st3" d="M5.2,19.5h63.6c2,0,1.6,0.5,1.7,1.7v42.6H3.2V21.2C3.3,19.7,3.4,19.5,5.2,19.5z"/>
	<rect x="3.9" y="4.6" class="st4" width="66.3" height="12.4"/>
	<g class="st5">
		<path class="st6" d="M11.5,15.6H4.4l1.8-11h6.9l-0.3,1.7h-5L7.4,9.2h4.1l-0.3,1.6H7.2l-0.5,3.1h5.2L11.5,15.6z"/>
		<path class="st6" d="M21.1,15.6H19l-1.8-4.2L14,15.6h-2l4.4-5.7l-2.3-5.3h2.2l1.5,3.7l2.8-3.7h2l-4,5.1L21.1,15.6z"/>
		<path class="st6" d="M24.4,15.6h-2.1l1.8-11h2.9c1,0,1.7,0,2.1,0.1c0.4,0,0.9,0.2,1.3,0.4s0.8,0.6,1,1.1c0.3,0.5,0.4,1,0.4,1.6
			c0,0.8-0.2,1.4-0.6,2c-0.4,0.6-0.9,1-1.5,1.2s-1.2,0.3-2,0.3h-2.6L24.4,15.6z M26,6.2l-0.6,3.4h1.9c0.7,0,1.2,0,1.4-0.1
			c0.3-0.1,0.5-0.3,0.7-0.6c0.2-0.3,0.3-0.7,0.3-1.1c0-0.4-0.1-0.7-0.3-1c-0.2-0.3-0.4-0.4-0.7-0.5s-0.7-0.1-1.4-0.1H26z"/>
		<path class="st6" d="M40.7,15.6h-2.1l-1.2-4.5h-2.6l-0.8,4.5h-2l1.8-11h4.1c0.8,0,1.5,0.1,2,0.2c0.5,0.2,0.9,0.5,1.3,1
			C41.8,6.4,42,7,42,7.7c0,0.7-0.2,1.4-0.6,2s-1.1,1-2,1.2L40.7,15.6z M35.2,9.5h2.7c0.8,0,1.4-0.2,1.7-0.6c0.3-0.4,0.4-0.8,0.4-1.2
			c0-0.4-0.1-0.7-0.3-0.9c-0.2-0.3-0.4-0.4-0.7-0.5c-0.3-0.1-0.6-0.1-1.1-0.1h-2.2L35.2,9.5z"/>
		<path class="st6" d="M49.8,15.6h-7.1l1.8-11h6.9l-0.3,1.7h-5l-0.5,2.8h4.1l-0.3,1.6h-4.1L45,13.9h5.2L49.8,15.6z"/>
		<path class="st6" d="M60,6.7l-1.8,0.7C57.8,6.5,57.1,6,56.1,6c-0.6,0-1.1,0.1-1.4,0.4s-0.5,0.6-0.5,1.1c0,0.3,0.1,0.6,0.3,0.8
			c0.2,0.2,0.6,0.4,1.1,0.5l1.5,0.4c0.4,0.1,0.8,0.3,1.2,0.6s0.7,0.6,0.9,1c0.2,0.4,0.3,0.8,0.3,1.3c0,1-0.4,1.9-1.1,2.6
			c-0.7,0.7-1.8,1.1-3.3,1.1c-2.2,0-3.6-0.9-4.3-2.7l1.8-0.6c0.4,1.1,1.3,1.7,2.6,1.7c0.8,0,1.3-0.2,1.7-0.5
			c0.4-0.3,0.5-0.7,0.5-1.2c0-0.3-0.1-0.5-0.2-0.7c-0.1-0.2-0.3-0.3-0.5-0.4c-0.2-0.1-0.6-0.2-1.3-0.4c-0.9-0.3-1.5-0.5-2-0.7
			c-0.4-0.2-0.8-0.6-1.1-1c-0.3-0.4-0.4-0.9-0.4-1.5c0-1,0.4-1.8,1.1-2.5c0.7-0.6,1.7-1,3-1C58,4.4,59.3,5.1,60,6.7z"/>
		<path class="st6" d="M69.1,6.7l-1.8,0.7C66.9,6.5,66.2,6,65.2,6c-0.6,0-1.1,0.1-1.4,0.4s-0.5,0.6-0.5,1.1c0,0.3,0.1,0.6,0.3,0.8
			c0.2,0.2,0.6,0.4,1.1,0.5l1.5,0.4c0.4,0.1,0.8,0.3,1.2,0.6s0.7,0.6,0.9,1c0.2,0.4,0.3,0.8,0.3,1.3c0,1-0.4,1.9-1.1,2.6
			c-0.7,0.7-1.8,1.1-3.3,1.1c-2.2,0-3.6-0.9-4.3-2.7l1.8-0.6c0.4,1.1,1.3,1.7,2.6,1.7c0.8,0,1.3-0.2,1.7-0.5
			c0.4-0.3,0.5-0.7,0.5-1.2c0-0.3-0.1-0.5-0.2-0.7c-0.1-0.2-0.3-0.3-0.5-0.4c-0.2-0.1-0.6-0.2-1.3-0.4c-0.9-0.3-1.5-0.5-2-0.7
			c-0.4-0.2-0.8-0.6-1.1-1c-0.3-0.4-0.4-0.9-0.4-1.5c0-1,0.4-1.8,1.1-2.5c0.7-0.6,1.7-1,3-1C67.1,4.4,68.4,5.1,69.1,6.7z"/>
	</g>
	<g class="st5">
		<path class="st7" d="M11.5,15.6H4.4l1.8-11h6.9l-0.3,1.7h-5L7.4,9.2h4.1l-0.3,1.6H7.2l-0.5,3.1h5.2L11.5,15.6z"/>
		<path class="st7" d="M21.1,15.6H19l-1.8-4.2L14,15.6h-2l4.4-5.7l-2.3-5.3h2.2l1.5,3.7l2.8-3.7h2l-4,5.1L21.1,15.6z"/>
		<path class="st7" d="M24.4,15.6h-2.1l1.8-11h2.9c1,0,1.7,0,2.1,0.1c0.4,0,0.9,0.2,1.3,0.4s0.8,0.6,1,1.1c0.3,0.5,0.4,1,0.4,1.6
			c0,0.8-0.2,1.4-0.6,2c-0.4,0.6-0.9,1-1.5,1.2s-1.2,0.3-2,0.3h-2.6L24.4,15.6z M26,6.2l-0.6,3.4h1.9c0.7,0,1.2,0,1.4-0.1
			c0.3-0.1,0.5-0.3,0.7-0.6c0.2-0.3,0.3-0.7,0.3-1.1c0-0.4-0.1-0.7-0.3-1c-0.2-0.3-0.4-0.4-0.7-0.5s-0.7-0.1-1.4-0.1H26z"/>
		<path class="st7" d="M40.7,15.6h-2.1l-1.2-4.5h-2.6l-0.8,4.5h-2l1.8-11h4.1c0.8,0,1.5,0.1,2,0.2c0.5,0.2,0.9,0.5,1.3,1
			C41.8,6.4,42,7,42,7.7c0,0.7-0.2,1.4-0.6,2s-1.1,1-2,1.2L40.7,15.6z M35.2,9.5h2.7c0.8,0,1.4-0.2,1.7-0.6c0.3-0.4,0.4-0.8,0.4-1.2
			c0-0.4-0.1-0.7-0.3-0.9c-0.2-0.3-0.4-0.4-0.7-0.5c-0.3-0.1-0.6-0.1-1.1-0.1h-2.2L35.2,9.5z"/>
		<path class="st7" d="M49.8,15.6h-7.1l1.8-11h6.9l-0.3,1.7h-5l-0.5,2.8h4.1l-0.3,1.6h-4.1L45,13.9h5.2L49.8,15.6z"/>
		<path class="st7" d="M60,6.7l-1.8,0.7C57.8,6.5,57.1,6,56.1,6c-0.6,0-1.1,0.1-1.4,0.4s-0.5,0.6-0.5,1.1c0,0.3,0.1,0.6,0.3,0.8
			c0.2,0.2,0.6,0.4,1.1,0.5l1.5,0.4c0.4,0.1,0.8,0.3,1.2,0.6s0.7,0.6,0.9,1c0.2,0.4,0.3,0.8,0.3,1.3c0,1-0.4,1.9-1.1,2.6
			c-0.7,0.7-1.8,1.1-3.3,1.1c-2.2,0-3.6-0.9-4.3-2.7l1.8-0.6c0.4,1.1,1.3,1.7,2.6,1.7c0.8,0,1.3-0.2,1.7-0.5
			c0.4-0.3,0.5-0.7,0.5-1.2c0-0.3-0.1-0.5-0.2-0.7c-0.1-0.2-0.3-0.3-0.5-0.4c-0.2-0.1-0.6-0.2-1.3-0.4c-0.9-0.3-1.5-0.5-2-0.7
			c-0.4-0.2-0.8-0.6-1.1-1c-0.3-0.4-0.4-0.9-0.4-1.5c0-1,0.4-1.8,1.1-2.5c0.7-0.6,1.7-1,3-1C58,4.4,59.3,5.1,60,6.7z"/>
		<path class="st7" d="M69.1,6.7l-1.8,0.7C66.9,6.5,66.2,6,65.2,6c-0.6,0-1.1,0.1-1.4,0.4s-0.5,0.6-0.5,1.1c0,0.3,0.1,0.6,0.3,0.8
			c0.2,0.2,0.6,0.4,1.1,0.5l1.5,0.4c0.4,0.1,0.8,0.3,1.2,0.6s0.7,0.6,0.9,1c0.2,0.4,0.3,0.8,0.3,1.3c0,1-0.4,1.9-1.1,2.6
			c-0.7,0.7-1.8,1.1-3.3,1.1c-2.2,0-3.6-0.9-4.3-2.7l1.8-0.6c0.4,1.1,1.3,1.7,2.6,1.7c0.8,0,1.3-0.2,1.7-0.5
			c0.4-0.3,0.5-0.7,0.5-1.2c0-0.3-0.1-0.5-0.2-0.7c-0.1-0.2-0.3-0.3-0.5-0.4c-0.2-0.1-0.6-0.2-1.3-0.4c-0.9-0.3-1.5-0.5-2-0.7
			c-0.4-0.2-0.8-0.6-1.1-1c-0.3-0.4-0.4-0.9-0.4-1.5c0-1,0.4-1.8,1.1-2.5c0.7-0.6,1.7-1,3-1C67.1,4.4,68.4,5.1,69.1,6.7z"/>
	</g>
	<g>
		<circle class="st8" cx="14.2" cy="76.4" r="8.4"/>
		<path class="st9" d="M9.8,82.3L9.8,82.3c2.7-4,6.7-7,11.3-8.2h-5.3L14.1,69l-1.7,5.1H7.1l4.3,3.1L9.8,82.3z"/>
		<path class="st10" d="M14.3,85c-4.8,0-8.7-3.9-8.7-8.7s3.9-8.7,8.7-8.7s8.7,3.9,8.7,8.7S19,85,14.3,85z M14.3,68.4
			c-4.4,0-7.9,3.6-7.9,7.9s3.6,7.9,7.9,7.9s7.9-3.6,7.9-7.9S18.6,68.4,14.3,68.4z"/>
		<path class="st10" d="M14.3,85.7c-5.1,0-9.3-4.2-9.3-9.3s4.2-9.3,9.3-9.3s9.3,4.2,9.3,9.3S19.4,85.7,14.3,85.7z M14.3,67.4
			c-5,0-9,4-9,9s4,9,9,9s9-4,9-9S19.2,67.4,14.3,67.4z"/>
		<path class="st10" d="M15.2,80.1l3.2,2.2L17,77.8C16.4,78.1,15.5,79.4,15.2,80.1z"/>
		<g>
			<path class="st10" d="M12.9,80.5c-0.7,1.1-1,1.9-1,1.9h0.6c0.3-0.6,0.6-1.2,0.9-1.8L12.9,80.5z"/>
			<path class="st10" d="M16.2,77.5c0.4-0.4,0.8-0.7,1.2-0.9l-0.6-0.1c-0.4,0.3-0.8,0.5-1.2,0.8L16.2,77.5z"/>
			<path class="st10" d="M18.9,75.5c-0.4,0.1-0.8,0.3-1.1,0.5l0.5,0.1c0.4-0.2,0.6-0.3,0.6-0.3l0.4-0.2L18.9,75.5z"/>
			<path class="st10" d="M14.7,78.2c-0.4,0.4-0.8,0.9-1.1,1.3l0.6,0.2c0.4-0.5,0.8-0.9,1.1-1.3L14.7,78.2z"/>
		</g>
	</g>
	<path class="st8" d="M35.5,55.7V35.9h-4.2v-4c2.7-0.2,4.5-1.3,5-3.5h4.1v27.3H35.5z"/>
</g>
</svg>
