<svg id="4ac4d6ce-b2c8-43d5-9f1d-2f78513b8353" data-name="Layer 1" xmlns="http://www.w3.org/2000/svg" xmlns:xlink="http://www.w3.org/1999/xlink" viewBox="0 0 96.77 71.46"><defs><style>.ddbd7aeb-efa9-4aae-8611-111fefd8d013{fill:none;}.f3944a04-9532-441f-957c-61de77b1bcbc{fill:#fff;}.da05ab7a-8d7d-4203-a79a-c14c88747877{fill:#231f20;}.\32 ef7dde6-d306-4218-bab8-b8b78921dc0f{fill:#404041;}.\35 9df3946-ad89-41ce-b25c-b275856aa239{fill:#6d6e70;}.d2658b14-c605-450d-979a-8cba8e259172{clip-path:url(#678267c4-ab95-48d0-a687-643c999a76a3);}.\39 bf00b3e-275a-434d-ae3e-d52b081ec5cf{fill:url(#8fe75f7a-45ed-4c36-9de0-06c76364470f);}.\38 6592aa5-241e-43ed-b111-62a232555fb9{clip-path:url(#71da5454-dd79-4d45-994f-871c1cae5a30);}.\31 e03d28f-858f-47bc-ad12-58b9661ccb0e{fill:url(#947f4393-7b31-48b1-b486-c6b43b13b6c7);}.\38 16e2723-906f-42b0-ba5e-b1de2b1a61a8{fill:#ec1c24;}</style><clipPath id="678267c4-ab95-48d0-a687-643c999a76a3" transform="translate(-6.11 -17.27)"><path id="336e2713-11fb-4184-b275-0a6579047754" data-name="SVGID" class="ddbd7aeb-efa9-4aae-8611-111fefd8d013" d="M51,23.47c-15,.86-21.79,14.7-21.79,14.7H54c-1.44-1-8.17-5.8-13.33-7.39,0,0,4.85-.47,11.35,2.74,5.17,2.56,7,4.12,13.11,4.65h5.4c-1.76-1.19-10.95-7.31-18-9.71,0,0,5.47-.82,14.57,4.17,6.78,3.72,9.07,5.09,12.38,5.54h4C71.49,27.79,61.74,23.9,53.94,23.47Z"/></clipPath><linearGradient id="8fe75f7a-45ed-4c36-9de0-06c76364470f" x1="-239.48" y1="441.82" x2="-238.29" y2="441.82" gradientTransform="matrix(45.46, 0, 0, -45.46, 10908.99, 20097.07)" gradientUnits="userSpaceOnUse"><stop offset="0" stop-color="#8bc53f"/><stop offset="1" stop-color="#009345"/></linearGradient><clipPath id="71da5454-dd79-4d45-994f-871c1cae5a30" transform="translate(-6.11 -17.27)"><path id="24c384df-57d4-41bb-a939-cb9d57520a33" data-name="SVGID" class="ddbd7aeb-efa9-4aae-8611-111fefd8d013" d="M46.3,39.61H35.72c7.53,1.22,10.12,6.16,10.12,6.16l0,0,0,0c.44.67,4.66,6.78,10.41,5.28C48,54.76,47,47.46,40.8,43.32c-3.4-2.28-6.92-1.45-9.41-.26,5.07,6.87,19.13,20.1,44.25,2.63-2.88-1.94-7.12-.58-8.53,0l-.34.14-.14.06h0c-9,3.6-12.64-1.12-12.64-1.12,5.37,2.46,7.48.53,15-1.28a11.14,11.14,0,0,1,8.06,1l.21.11c1.16-.85,2.35-1.77,3.55-2.75.86-.7,1.72-1.43,2.6-2.19Z"/></clipPath><linearGradient id="947f4393-7b31-48b1-b486-c6b43b13b6c7" x1="-239.33" y1="441.36" x2="-238.13" y2="441.36" gradientTransform="matrix(43.62, 0, 0, -43.62, 10464.68, 19286.28)" gradientUnits="userSpaceOnUse"><stop offset="0" stop-color="#29a9e1"/><stop offset="1" stop-color="#16639f"/></linearGradient></defs><title>MoPac_South_Shield</title><rect class="f3944a04-9532-441f-957c-61de77b1bcbc" width="96.77" height="71.46" rx="0.99" ry="0.99"/><path class="da05ab7a-8d7d-4203-a79a-c14c88747877" d="M101,19.13V86.87H8V19.13h93m.94-1.86H7a.93.93,0,0,0-.93.92V87.81a.93.93,0,0,0,.93.92H102a.93.93,0,0,0,.93-.92V18.19a.93.93,0,0,0-.93-.92Z" transform="translate(-6.11 -17.27)"/><polygon class="2ef7dde6-d306-4218-bab8-b8b78921dc0f" points="12.44 59.28 12.44 51.28 10.88 56.1 9.33 56.1 7.89 51.28 7.89 59.28 5.92 59.28 5.92 44.46 7.83 44.46 10.09 51.87 12.44 44.46 14.35 44.46 14.35 59.28 12.44 59.28"/><path class="2ef7dde6-d306-4218-bab8-b8b78921dc0f" d="M23.42,65.76a1.31,1.31,0,0,1,1.27-1.27h2.88a1.27,1.27,0,0,1,1.27,1.27V75.3a1.27,1.27,0,0,1-1.27,1.25H24.69a1.29,1.29,0,0,1-1.27-1.25Zm3.52.63H25.33v8.25h1.61Z" transform="translate(-6.11 -17.27)"/><path class="2ef7dde6-d306-4218-bab8-b8b78921dc0f" d="M31.8,61.74H36A1.27,1.27,0,0,1,37.22,63v5.57A1.27,1.27,0,0,1,36,69.82H33.71v6.73H31.8V61.74Zm3.52,1.9H33.71v4.27h1.61Z" transform="translate(-6.11 -17.27)"/><path class="2ef7dde6-d306-4218-bab8-b8b78921dc0f" d="M43.08,74.5h-2l-.26,2h-2L40.4,64.49h3.38l1.53,12.06h-2Zm-1.73-1.91h1.5l-.76-6.2Z" transform="translate(-6.11 -17.27)"/><path class="2ef7dde6-d306-4218-bab8-b8b78921dc0f" d="M51.23,68.08V66.39H49.62v8.25h1.61V72.93h1.91V75.3a1.27,1.27,0,0,1-1.27,1.25H49a1.28,1.28,0,0,1-1.27-1.25V65.76A1.3,1.3,0,0,1,49,64.49h2.88a1.27,1.27,0,0,1,1.27,1.27v2.32Z" transform="translate(-6.11 -17.27)"/><path class="2ef7dde6-d306-4218-bab8-b8b78921dc0f" d="M61.32,72.08v2.56h1.61V69.86H60.69a1.27,1.27,0,0,1-1.27-1.25V63a1.22,1.22,0,0,1,1.27-1.28h2.88A1.24,1.24,0,0,1,64.84,63V66.1H62.93V63.64H61.32V68h2.25a1.27,1.27,0,0,1,1.27,1.27V75.3a1.27,1.27,0,0,1-1.27,1.25H60.69a1.28,1.28,0,0,1-1.27-1.25V72.08Z" transform="translate(-6.11 -17.27)"/><path class="2ef7dde6-d306-4218-bab8-b8b78921dc0f" d="M67.8,65.76a1.3,1.3,0,0,1,1.27-1.27H72a1.27,1.27,0,0,1,1.27,1.27V75.3A1.27,1.27,0,0,1,72,76.55H69.07A1.28,1.28,0,0,1,67.8,75.3Zm3.51.63H69.7v8.25h1.61Z" transform="translate(-6.11 -17.27)"/><path class="2ef7dde6-d306-4218-bab8-b8b78921dc0f" d="M78.09,64.49V74.64h1.6V64.49H81.6V75.3a1.27,1.27,0,0,1-1.27,1.25H77.45a1.28,1.28,0,0,1-1.27-1.25V64.49Z" transform="translate(-6.11 -17.27)"/><polygon class="2ef7dde6-d306-4218-bab8-b8b78921dc0f" points="79.5 49.12 77.81 49.12 77.81 47.22 83.1 47.22 83.1 49.12 81.41 49.12 81.41 59.28 79.5 59.28 79.5 49.12"/><polygon class="2ef7dde6-d306-4218-bab8-b8b78921dc0f" points="85.43 47.22 87.33 47.22 87.33 52.36 88.94 52.36 88.94 47.22 90.85 47.22 90.85 59.28 88.94 59.28 88.94 54.26 87.33 54.26 87.33 59.28 85.43 59.28 85.43 47.22"/><polygon class="59df3946-ad89-41ce-b25c-b275856aa239" points="5.82 64.87 7.57 64.87 7.57 65.18 5.48 65.18 5.48 61.91 7.51 61.91 7.51 62.21 5.82 62.21 5.82 63.32 7.4 63.32 7.4 63.63 5.82 63.63 5.82 64.87"/><polygon class="59df3946-ad89-41ce-b25c-b275856aa239" points="12.34 64.68 12.35 64.68 12.35 61.91 12.69 61.91 12.69 65.18 12.27 65.18 10.32 62.38 10.31 62.38 10.31 65.18 9.98 65.18 9.98 61.91 10.39 61.91 12.34 64.68"/><polygon class="59df3946-ad89-41ce-b25c-b275856aa239" points="16.28 64.68 16.29 64.68 17.36 61.91 17.72 61.91 16.45 65.18 16.11 65.18 14.87 61.91 15.24 61.91 16.28 64.68"/><rect class="59df3946-ad89-41ce-b25c-b275856aa239" x="19.91" y="61.91" width="0.33" height="3.27"/><path class="59df3946-ad89-41ce-b25c-b275856aa239" d="M29.33,82.45H29V79.18h1c.67,0,1.08.28,1.08.87a.84.84,0,0,1-.84.85l1,1.55h-.41l-.9-1.52h-.55Zm0-1.83h.59c.6,0,.8-.26.8-.57s-.2-.57-.8-.57h-.59Z" transform="translate(-6.11 -17.27)"/><path class="59df3946-ad89-41ce-b25c-b275856aa239" d="M35,82.53a1.72,1.72,0,1,1,1.7-1.72A1.66,1.66,0,0,1,35,82.53m0-3.13a1.42,1.42,0,1,0,1.34,1.41A1.33,1.33,0,0,0,35,79.4" transform="translate(-6.11 -17.27)"/><polygon class="59df3946-ad89-41ce-b25c-b275856aa239" points="35.35 64.68 35.36 64.68 35.36 61.91 35.7 61.91 35.7 65.18 35.28 65.18 33.33 62.38 33.32 62.38 33.32 65.18 32.99 65.18 32.99 61.91 33.4 61.91 35.35 64.68"/><polygon class="59df3946-ad89-41ce-b25c-b275856aa239" points="39.95 64.57 41.06 61.91 41.56 61.91 41.56 65.18 41.23 65.18 41.23 62.35 41.22 62.35 40.04 65.18 39.86 65.18 38.68 62.35 38.67 62.35 38.67 65.18 38.34 65.18 38.34 61.91 38.85 61.91 39.95 64.57"/><polygon class="59df3946-ad89-41ce-b25c-b275856aa239" points="44.54 64.87 46.29 64.87 46.29 65.18 44.21 65.18 44.21 61.91 46.23 61.91 46.23 62.21 44.54 62.21 44.54 63.32 46.12 63.32 46.12 63.63 44.54 63.63 44.54 64.87"/><polygon class="59df3946-ad89-41ce-b25c-b275856aa239" points="51.07 64.68 51.08 64.68 51.08 61.91 51.41 61.91 51.41 65.18 50.99 65.18 49.04 62.38 49.03 62.38 49.03 65.18 48.7 65.18 48.7 61.91 49.12 61.91 51.07 64.68"/><polygon class="59df3946-ad89-41ce-b25c-b275856aa239" points="55.1 65.18 54.77 65.18 54.77 62.21 53.67 62.21 53.67 61.91 56.2 61.91 56.2 62.21 55.1 62.21 55.1 65.18"/><path class="59df3946-ad89-41ce-b25c-b275856aa239" d="M64.2,82.45h-.38l1.42-3.27h.32L67,82.45H66.6l-.36-.86H64.57Zm.49-1.17h1.42l-.71-1.72Z" transform="translate(-6.11 -17.27)"/><polygon class="59df3946-ad89-41ce-b25c-b275856aa239" points="63.4 64.87 64.93 64.87 64.93 65.18 63.07 65.18 63.07 61.91 63.4 61.91 63.4 64.87"/><path class="59df3946-ad89-41ce-b25c-b275856aa239" d="M77.84,79.72a.7.7,0,0,0-.63-.32c-.35,0-.7.18-.7.59,0,.88,1.68.42,1.68,1.59a1,1,0,0,1-1.08,1,1.23,1.23,0,0,1-1-.48l.3-.22a.83.83,0,0,0,.74.4.67.67,0,0,0,.71-.6c0-.92-1.68-.41-1.68-1.61a1,1,0,0,1,1.06-.93,1.14,1.14,0,0,1,.92.4Z" transform="translate(-6.11 -17.27)"/><polygon class="59df3946-ad89-41ce-b25c-b275856aa239" points="75.55 65.18 75.22 65.18 75.22 62.21 74.12 62.21 74.12 61.91 76.65 61.91 76.65 62.21 75.55 62.21 75.55 65.18"/><path class="59df3946-ad89-41ce-b25c-b275856aa239" d="M87.36,81.23a1.2,1.2,0,1,1-2.39,0v-2h.33v2c0,1,.62,1,.87,1s.86-.09.86-1v-2h.33Z" transform="translate(-6.11 -17.27)"/><path class="59df3946-ad89-41ce-b25c-b275856aa239" d="M89.9,79.18H91a1.64,1.64,0,1,1,0,3.27H89.9Zm.34,3h.64a1.34,1.34,0,1,0,0-2.66h-.64Z" transform="translate(-6.11 -17.27)"/><polygon class="59df3946-ad89-41ce-b25c-b275856aa239" points="90.06 65.18 89.73 65.18 89.73 63.77 88.51 61.91 88.92 61.91 89.9 63.45 90.87 61.91 91.29 61.91 90.06 63.77 90.06 65.18"/><g class="d2658b14-c605-450d-979a-8cba8e259172"><rect class="9bf00b3e-275a-434d-ae3e-d52b081ec5cf" x="23.09" y="6.2" width="54.17" height="14.7"/></g><g class="86592aa5-241e-43ed-b111-62a232555fb9"><rect class="1e03d28f-858f-47bc-ad12-58b9661ccb0e" x="25.28" y="22.33" width="51.99" height="23.55"/></g><polyline class="816e2723-906f-42b0-ba5e-b1de2b1a61a8" points="39.73 28.5 39.73 28.5 39.72 28.49 39.73 28.5"/></svg>