<?xml version="1.0" encoding="utf-8"?>
<!-- Generator: Adobe Illustrator 22.1.0, SVG Export Plug-In . SVG Version: 6.00 Build 0)  -->
<svg version="1.1" id="_x37_e11f93f-706f-4f4c-8d52-bc9d29e9f441"
	 xmlns="http://www.w3.org/2000/svg" xmlns:xlink="http://www.w3.org/1999/xlink" x="0px" y="0px" viewBox="0 0 90.3 90.3"
	 style="enable-background:new 0 0 90.3 90.3;" xml:space="preserve">
<style type="text/css">
	.st0{fill-rule:evenodd;clip-rule:evenodd;fill:#EBB01F;stroke:#231F20;stroke-miterlimit:10;}
	.st1{fill-rule:evenodd;clip-rule:evenodd;fill:#0056A1;}
	.st2{fill:#221F1F;}
	.st3{fill:#FFFFFF;}
	.st4{fill:#ECA820;}
	.st5{fill:#0155A3;}
</style>
<g>
	<title>SH_45SW_Shield</title>
	<path class="st0" d="M3.8,1h82.6c1.6,0,2.9,1.3,2.9,2.9v82.5c0,1.6-1.3,2.9-2.9,2.9H3.8c-1.4,0-2.8-1.3-2.8-2.9V3.9
		C1,2.4,2.4,1,3.8,1z"/>
	<path class="st1" d="M6.6,3.6h77.5c2.4,0,2,0.7,2.1,2.1v52H4.1v-52C4.2,4,4.3,3.6,6.6,3.6z"/>
	<g>
		<path class="st2" d="M38.3,68.7v12.9h-3V68.7h-4.4v-3.2h11.8v3.2H38.3z"/>
		<path class="st2" d="M54,73.5c0,2.9-1,5.1-3.5,5.1c-2.5,0-3.5-2.2-3.5-5.1c0-2.9,1-5.1,3.5-5.1C53,68.4,54,70.7,54,73.5z
			 M57.2,73.5c0-4.9-2.5-8.3-6.6-8.3c-4.1,0-6.6,3.4-6.6,8.3c0,4.9,2.5,8.3,6.6,8.3C54.7,81.8,57.2,78.4,57.2,73.5z"/>
		<path class="st2" d="M60.2,81.6V65.5h3v12.9h7.6v3.2H60.2z"/>
		<path class="st2" d="M73.5,81.6V65.5h3v12.9h7.6v3.2H73.5z"/>
	</g>
	<g>
		<circle class="st3" cx="16.4" cy="73.3" r="10.6"/>
		<path class="st4" d="M10.7,80.9l0.1-0.1c3.3-5,8.3-8.8,14.3-10.4l-6.8,0L16.2,64l-2.1,6.4l-6.8,0l5.5,4L10.7,80.9z"/>
		<path class="st5" d="M16.4,84.3c-6.1,0-11-4.9-11-11c0-6.1,4.9-11,11-11s11,4.9,11,11C27.4,79.4,22.5,84.3,16.4,84.3z M16.4,63.3
			c-5.5,0-10,4.5-10,10c0,5.5,4.5,10,10,10s10-4.5,10-10C26.5,67.8,22,63.3,16.4,63.3z"/>
		<path class="st5" d="M16.4,85.1c-6.5,0-11.7-5.3-11.7-11.7s5.3-11.7,11.7-11.7s11.7,5.3,11.7,11.7S22.9,85.1,16.4,85.1z
			 M16.4,61.9C10.1,61.9,5,67,5,73.3s5.1,11.4,11.4,11.4s11.4-5.1,11.4-11.4S22.7,61.9,16.4,61.9z"/>
		<path class="st5" d="M17.6,78l4.1,2.8l-1.8-5.8C19.1,75.5,18,77.2,17.6,78z"/>
		<g>
			<path class="st5" d="M14.7,78.5c-0.9,1.4-1.2,2.4-1.2,2.4l0.8,0c0.3-0.8,0.8-1.5,1.2-2.2L14.7,78.5z"/>
			<path class="st5" d="M18.9,74.7c0.5-0.5,1.1-0.8,1.5-1.1l-0.8-0.1c-0.5,0.3-1,0.7-1.5,1L18.9,74.7z"/>
			<path class="st5" d="M22.3,72.2c-0.5,0.2-1,0.4-1.4,0.6l0.6,0.1c0.5-0.3,0.7-0.4,0.7-0.4l0.5-0.3L22.3,72.2z"/>
			<path class="st5" d="M17,75.6c-0.5,0.5-1,1.1-1.4,1.6l0.7,0.2c0.5-0.6,1-1.1,1.4-1.6L17,75.6z"/>
		</g>
	</g>
	<g>
		<path class="st3" d="M40.6,14h-7.5L18.6,33.9v6.7h14.9v7.5h7.1v-7.5h4.7v-6h-4.7V14z M25.3,34.7l8.2-11.7v11.7H25.3z"/>
		<path class="st3" d="M61.1,24.6c-2.4,0-4.1,0.3-5.4,1.1l0.3-5.2h13.4V14H50.2l-1.3,18.7l5.9,1.1l0.3-0.4c0.9-1.6,2.5-2.4,4.4-2.4
			c2.9,0,4.9,2.1,4.9,5.3c0,2.1-0.6,3.8-1.6,4.8c-0.9,0.9-2.2,1.3-3.8,1.2C58,42.2,57,42,56,41.5c-1-0.6-1.9-1.4-2.4-2.5l-0.3-0.7
			l-6.3,3.2l0.3,0.6c2.1,4.1,6.2,6.5,11.4,6.5c8.1,0,12.9-4.6,12.9-12.4C71.7,30.6,67.6,24.6,61.1,24.6z"/>
	</g>
</g>
</svg>
